<svg xmlns="http://www.w3.org/2000/svg" xmlns:vectornator="http://vectornator.io" xmlns:xlink="http://www.w3.org/1999/xlink" xml:space="preserve" stroke-linecap="round" stroke-linejoin="round" stroke-miterlimit="10" clip-rule="evenodd" viewBox="0 0 1800 1800"><clipPath id="a"><path d="M0 0h1800v1800H0z"/></clipPath><g vectornator:layerName="Capa 1" clip-path="url(#a)" opacity=".15"><use xlink:href="#b" opacity="1" transform="translate(1.895 -12.45)"/></g><g vectornator:layerName="Capa 3" fill="#cedced"><path d="M275.5 198.062c-4.026-.298-7.871.081-10.969 2.344-7.198 5.26-10.097 15.454-11.093 24.313-1.612 14.332 3.193 28.706 3.5 43.125.207 9.766-1.571 19.49-1.969 29.25-.625 15.332 1.248 30.654 1.219 46-.101 53.235-4.261 106.506-1.844 159.781 1.926 42.46 2.188 84.968 5.094 127.344.644 9.401 1.648 18.809 2.718 28.219-1.811-32.591-2.735-65.696-2.906-99.188-4.8-64.599-5.333-126.387-1.406-187.531 1.898-29.557 7.899-75.464 15.406-122.594.743-4.664 1.347-9.078 2.344-17.187.969-7.889 1.114-9.084 1.562-12.438 1.063-7.953 2.196-14.664 3.5-20.688-1.745-.279-3.43-.621-5.156-.75Zm11.344 1.626c-1.305 5.962-2.43 12.645-3.5 20.656-.444 3.321-.597 4.514-1.563 12.375-1.005 8.18-1.617 12.616-2.375 17.375-7.478 46.949-13.461 92.72-15.344 122.031-1.497 23.319-2.261 46.747-2.468 70.375 1.033-25.539 2.027-45.154 3.687-64.469 4.949-57.578 14.337-104.164 31.031-144.906 3.904-9.525 8.749-17.882 14.626-24.844.303-.359.603-.612.906-.937-3.541-.821-7.2-1.583-10.532-2.5-4.708-1.296-8.932-4.477-13.781-5.063-.217-.026-.467-.064-.687-.093Zm32.406 9.374c-.121.049-.17.04-.438.219-.847.568-1.883 1.567-3.093 3-5.427 6.429-9.955 14.261-13.625 23.219-16.419 40.069-25.695 86.06-30.594 143.062-2.293 26.676-3.277 47.326-4.938 95.438-.987 28.596-1.231 56.772-1.093 84.75 6.373 85.801 20.311 176.663 41.469 277.906 6.543 31.314 14.257 64.679 22.781 99.063-23.913-98.386-38.772-194.02-44.157-287.75-.138-.883-.3-1.774-.437-2.657-7.112-45.812-11.6-90.606-13.313-134.374-1.892-48.382.17-91.026 7.532-130.032 7.049-37.351 18.892-69.987 36.094-97.687.73-2.683 1.379-5.448 2.156-8.094.369-4.667.918-11.339 1.25-15.656.131-1.71 1.159-11.771 1.312-13.375.438-4.574.795-8.614 1.032-12.438.653-10.581.473-18.405-.719-22.656-.246-.875-.518-1.439-.781-1.844-.15-.031-.289-.062-.438-.094Zm7.469 1.532c1.174 5.2 1.333 13.006.687 23.468-.241 3.904-.587 7.987-1.031 12.626-.002.023-.029.16-.031.187 1.8-5.62 2.819-9.009 3.968-12.187 3.165-8.751 6.388-15.844 9.813-21.532-4.326-.788-8.866-1.673-13.406-2.562Zm25 4.812c-.071.224-.328.845-.375 1.032-.622 2.433-2.174 8.882-2.188 8.937-2.427 10.135-3.614 14.706-5.437 20.313-2.862 8.798-11.122 31.57-11.188 31.75-1.057 2.89-1.37 3.994-2.281 6.531 2.163-.477 4.316-.916 6.375-1.094a42.957 42.957 0 0 1 6.563-.063c5.516.373 10.539 1.875 14.937 4.344 4.109-20.991 10.638-54.243 13.219-67.468-6.463-1.547-13.067-3.009-19.625-4.282Zm-7.094 2.313c-2.869 5.062-5.696 11.428-8.469 19.093-2.504 6.925-9.2 28.356-8.75 27-.385 1.16-.709 2.355-1.062 3.532 1.379-1.828 2.689-3.724 4.125-5.5.307-.38.773-.458 1.187-.656 1.986-5.566 4.575-12.544 6.156-17.407 1.756-5.398 5.3-19.913 5.313-19.969.729-3.042 1.082-4.411 1.5-6.093Zm35.563 4.187c-1.008 12.217-2.234 26.142-4.219 47.188 0 .001-2.188 23.532-3.157 34.468.563 1.21 1.129 2.421 1.594 3.719 4.779 13.33 3.391 28.823-3.562 41.594-1.373 3.439-3.133 6.781-5.406 9.906-.227.312-.489.656-.75 1.063-.483.751-2.424 4.004-2.25 3.718-2.904 4.784-5.198 7.411-8.688 8.719-1.491.559-3.017.965-4.562 1.281-8.05 59.44-12.599 116.861-13.344 172.407 1.026-.694 2.072-1.317 3.156-1.781 2.745-1.177 5.349-1.635 7.812-1.407 2.142.199 4.16.997 6.063 2.188 14.447.793 25.757 10.398 31.375 25.875.204.561.315 1.151.5 1.718 1.896.167 3.119 1.665 3.75 3.719.395 1.285.61 2.923.719 4.875a59.613 59.613 0 0 1 .031 5.844c0 5.326-.886 11.914-2.562 17.25a32.443 32.443 0 0 1-2.313 5.562c-.296.831-.601 1.66-.937 2.469-.018.1.02.277 0 .375-.201.978-.662 1.763-1.219 2.438-1.946 3.963-4.347 7.629-7.313 10.781-.489.52-1.067 1.21-1.812 2.219-.4.541-1.892 2.658-2.188 3.062-3.209 4.396-5.512 6.758-8.5 7.906-2.348.904-5.062.808-8.656.094-.831-.165-1.647-.327-2.75-.594-3.471-.837-3.36-.819-4.188-.937-1.558-.223-2.894-.357-5.843-.594-1.08-.086-1.518-.106-2.094-.156-.27-.023-.427-.069-.687-.094.132 2.013.199 4.055.343 6.063 3.83 53.467 10.161 106.633 18.75 159.406.79-.759 1.58-1.568 2.375-2.219.027-.036.067-.057.094-.093 3.96-5.325 8.667-9.344 14.031-11.313 1.472-.54 2.886-.877 4.313-1 4.282-.368 8.642 1.118 14.594 4.125l1.593.812c20.18 10.283 26.258 20.982 26.75 45.688.023 1.12.02 3.165-.031 5.344-.077 3.294-.241 6.518-.531 9.468-.376 3.818-.93 6.953-1.719 9.282-1.275 3.763-3.41 6.076-6.844 5.25a4.835 4.835 0 0 1-1.531-.688c-.813 7.271-2.147 12.422-4.813 15.125-1.853 1.88-4.131 2.314-6.124 1.438-.152.212-.276.507-.438.687-1.512 1.684-3.666 2.194-5.656 1.219-.698-.342-1.329-.844-1.906-1.469-.359 1.15-.648 2.484-1.157 3.375-1.332 2.34-3.289 3.802-5.906 3.907-1.842.073-3.652-.767-5.063-2.032-.54.12-1.072.255-1.624.313-.156.125-.318.238-.469.375 5.876 19.834 12.002 39.957 18.719 60.844 11.092 34.497 23.065 68.552 35.718 102.502.277-.42.647-1.03.875-1.35.415-.58.738-1.01 1.063-1.34.145-.15.296-.28.468-.41.354-.26.753-.47 1.282-.59 1.032-.23 2.103.14 2.906.97.94-2.39 1.925-4.7 3.062-6.91.147-.28.242-.49.376-.68.086-.13.096-.13.25-.32.206-.24.226-.26.874-.72.55-.28.545-.28 1.626-.4 1.35.25 1.332.26 2.281 1.12.756 1.45.77 1.43.75 1.97.007.48-.05.73-.188 1.19-.051.17-.104.35-.187.59-.255.74-.706 1.87-1.313 3.44-.027.07-1.157 3.02-1.281 3.34a183.67 183.67 0 0 1-2.188 5.44c-.103.25-.456 1.05-.781 1.81-1.001 3.36-1.983 7.05-3 11.38.155.4.314.81.469 1.22 1.353-4.94 3.081-11.23 3.656-12.85.717-2.01 1.581-4.03 2.782-6.5.08-.16.907-1.96.968-2.09.45-.97.79-1.61 1.094-2.09.14-.23.268-.43.438-.63.15-.17.326-.34.531-.5.407-.31.876-.53 1.5-.62 1.906-.28 3.085.93 3.469 2.31.395-.89.785-1.82 1.156-2.35.237-.33.497-.63.812-.9.638-.54 1.407-.9 2.406-.84 2.085.11 2.891 1.42 3.219 3.06.388 1.93-.134 5.31-1.281 9.9.607-1.22 1.097-2.47 1.719-3.5.789-1.3 1.508-2.27 2.219-2.93 1.937-1.82 5.162-1.9 6.124 1.43.129.45.022 1.15.063 1.69.303-.05.55.14.844.16.071-.1.147-.25.219-.35.796-1.06 1.577-1.87 2.374-2.4 1.637-1.1 3.734-1.27 5.188.59 1.095 1.41 1.309 2.98 1.25 4.75.334-.21.731-.36 1.25-.44 1.831-.25 3.086.9 3.5 2.25.126-.28.135-.25.688-1.53.007-.02.912-2.1 1.156-2.62.082-.18.156-.32.218-.44.179-.35.276-.52.532-.81.254-.37.249-.36 1.844-1.03 1.617.01 1.634.01 2.937 1.09.595.99.57.99.656 1.53.041.67.039.66 0 .91-.031.19-.005.19-.031.31-.042.18-.109.33-.188.56-.113.34-.531 1.41-.718 1.94.035.23.134.47.125.69-.003.07-.026.12-.031.19 2.948-.41 4.435 2.02 3.937 4.43-.164.8-.446 1.51-1.031 2.78-.036.08-.027.08-.063.16-.472 1.02-.623 1.35-.687 1.56-2.127 7.13-4.078 13.45-6.063 19.47-.351 1.07-.764 2.79-1.093 3.84 2.334-6.17 4.611-11.28 7-14.96.225-.75.479-1.58.531-1.75.141-.46.179-.61.25-.79.024-.1.039-.09.531-.84.309-.42.744-.55 2.219-.97 1.469-1.41 2.984-2.44 4.593-2.9 2.741-.8 4.496 1.33 4.407 3.56-.026.65-.143 1.18-.407 2.06-.03.1-.033.12-.062.22-.185.61-.235.74-.25.81-.516 2.71-1.097 5.29-2.094 9.25-.924 3.68-1.797 6.58-3.781 13.03-.009.03-1.207 3.96-1.656 5.47-.169.57-1.204 4.53-1.313 4.94-.784 2.94-1.388 4.85-2.094 6.31-.594 1.23-1.241 2.11-2.218 2.72-1.232.76-2.504.55-3.656-.03-.404 1.75-.71 2.93-1.438 4.09-.147.24-.966 1.61-1.188 1.97-.424.7-.802 1.28-1.187 1.78-.702.93-1.39 1.61-2.281 2.03-1.781.86-3.779.32-4.906-1.37-.201-.3-.276-.83-.438-1.19-.167.57-.386 1.51-.562 2.1-.184.6-.326 1.39-.563 3.03-.058.4-.094.6-.125.81-.368 2.5-.667 3.95-1.281 5.31-1.118 2.48-3.232 3.92-6 3.41-1.34-.25-2.334-.91-3.031-1.78 19.417 46.62 40.623 93.47 63.687 141.06.462-2.23.958-4.85 1.375-6.59.103-.89.244-2.21.281-2.5.041-.32.151-2.08.157-2.19.069-1.44.098-2.1.187-2.72.039-.27.089-.51.156-.75.186-.66.443-1.17 1.094-1.72 1.611-1.35 3.561-.76 4.563.53.301.39.478.75.624 1.19.313.93.284 2.17.376 3.31 1.187-2.38 3.931-3.55 6.25-1.25.893.89 1.397 2.34 1.718 4.25.806-1.75 1.994-4.36 2-4.37.384-.85.619-1.37.813-1.75.073-.15.151-.29.219-.41.068-.11.075-.11.187-.28.141-.21.125-.2.687-.72.553-.42.567-.43 2.219-.62 1.053.23 1.031.23 1.844.87.391.47.454.62.563.84.024-.04.036-.14.062-.18.205-.35.437-.68.75-.97a3.261 3.261 0 0 1 2.469-.91c.921.05 1.572.33 2.062.78.924-1.08 2.012-1.93 3.375-2.03.553-.04 1.142.03 1.75.19 2.196.59 2.891 2.29 3 4.5.022.43-.098 1.14-.125 1.66.14.31.225.51.281.81.036.63.017.66 0 .78.474-1.01.915-1.94 1.5-2.53 2.034-2.04 4.936-1.35 6.157 1.19.039.08.026.17.062.25.023-.04.039-.1.063-.13.55-.8 1.227-1.58 1.906-2.19.625-.55 1.234-.98 2.031-1.18a3.624 3.624 0 0 1 4.063 1.65c1.317 2.19 1.766 4.34 1.625 6.75.02-.05.091-.21.093-.22.375-.9.626-1.42.844-1.84.097-.19.171-.37.282-.53.099-.15.208-.29.343-.44.311-.34.671-.63 1.219-.84a3.144 3.144 0 0 1 3.5.87c.485.56.669 1.1.75 1.66.054.37.04.68 0 1.03-.27 2.33-.786 4.62-1.219 6.91.343.99.331 2.09.281 3.22.18-.51.37-1.26.563-1.63.204-.39.45-.74.75-1.06.61-.65 1.405-1.12 2.469-1.13.071 0 .088.06.156.06.042-.05.083-.16.125-.21.172-.21.338-.4.594-.6.362-.28.363-.26 1.375-.59 1.831.02 1.839.03 3.25 1.5.451 1.16.455 1.16.437 1.69-.027.37-.02.37-.062.59-.04.19-.093.38-.157.56-.576 1.68-1.501 4.1-2.124 5.85-.568 3.87-2.207 9.21-5.563 18.68-.054.16-.072.16-.125.32-1.409 3.98-1.765 5.43-2.5 7.75.981-1.4 2.012-2.74 3.031-3.97.527-1.54 1.222-3.84 1.781-5.31 1.436-3.78 2.76-6.76 5.782-13.13.166-.35.178-.37.344-.72.262-.55.785-1.48 1.218-2.19.29-.47.508-.81.75-1.09.187-.22.371-.4.656-.59.406-.28.415-.27 1.438-.54 1.662.1 1.667.07 2.969 1.35.51 1.11.513 1.12.531 1.69-.009.4-.026.39-.062.62-.034.2-.066.38-.126.56-1.078 3.39-2.065 6.21-4.093 11.91-.327.92-.455 1.33-.625 1.81-.558 1.57-.841 2.51-1.313 3.88.338.93.543 1.99.563 3.4.04 2.83-.4 7-1.219 11.57-.813 4.53-1.933 9.03-3.063 12.37-.638 1.89-1.261 3.43-1.937 4.56-1.173 1.98-2.575 3.18-4.75 2.88-1.247-.18-2.035-.94-2.594-1.84-.748 1.56-1.598 3.18-2.469 4.5-1.031 1.56-1.977 2.67-3.031 3.34-1.459.93-2.992.83-4.187.06-.066.38-.187 1.09-.188 1.1-.659 4.04-1.094 5.92-2.156 8.18-.539 1.15-1.6 2.38-2.719 3.19-1.355.99-2.892 1.39-4.281.91a3805.55 3805.55 0 0 0 32.656 61.28 3.146 3.146 0 0 1-1.25 4.25 3.11 3.11 0 0 1-4.218-1.25c-12.381-22.75-24.217-45.15-35.719-67.35-.273-.05-.542-.07-.813-.18-2.802-1.22-4.341-4.05-5.156-8.1-.171-.05-.327-.05-.5-.12-1.62-.69-2.422-1.9-2.969-3.41-.419 1.05-1.041 1.96-2.093 2.81-2.903 2.37-5.687.46-6.313-2.5-.24-1.13-.281-2.5-.219-4.5.014-.42.036-.84.063-1.43.064-1.47.063-1.76.062-2.19-.006-2.46.411-5.23.875-8.59-1.068.06-2.001-.45-2.687-1.22-.492 2.05-.837 3.28-1.563 6.46-.057.25-.156.78-.25 1.29-.032.17-.058.23-.094.43l-.437 2.57c-.011.06-.023.04-.031.09a.763.763 0 0 1-.032.19c-.021.12-.044.29-.062.37-.006.08-.017.09-.281.75-.016.03-.051.07-.063.1 14.368 27.57 29.405 54.96 45.094 82.21 24.789 43.06 55.874 92.21 91.031 144.85 1.362 1.3 5.053 4.88 5.469 5.28 2.856.38 5.714.78 8.531 1.22 17.971 2.79 35.462 3.47 53.407 5.87 29.883 4 60.737-1.53 90.437-4.87 4.341-.49 8.812-.35 13.031-1.47 4.407-1.18 10.433-1.36 12.594-5.38 2.08-3.86-.667-9.02-2.781-12.87-1.94-3.53-5.896-5.5-8.844-8.25-6.343-5.91-12.899-11.59-19.125-17.62-9.676-9.39-20.211-18.6-29.531-28.32-19.757-20.59-36.036-47.59-50.313-72.15-8.192-14.1-17.139-27.97-25.906-41.94-105.895-144.72-184.444-306.12-232.625-476.658-2.516-6.195-5.141-12.361-7.563-18.593-18.321-47.143-35.345-96.661-42.874-146.844-10.327-68.83-13.071-141.323-13.157-210.844-.054-43.93-3.687-87.648-2.906-131.531a5125.375 5125.375 0 0 1 4.313-137.625c.353-7.904 1.714-16.034-.032-23.75-.889-3.928-.758-8.925-3.906-11.437-3.148-2.513-8.138-.25-12.031-1.282-9.261-2.453-18.127-6.166-27.344-8.781-1.681-.477-3.279-.776-4.937-1.219ZM665.062 1431.53c.743.09 1.487.45 2.063 1.13.568.67.725 1.28.781 2 .024.3.026.61 0 .93-.063.8-.243 1.82-.562 3.29-.038.17-.584 2.55-.656 2.9-.581 2.78-1.127 4.96-2.438 9.81-.016.06-.688 2.58-.938 3.53a500.369 500.369 0 0 0-4.468 18.41c1.471-4.95 3.048-10.58 3.75-12.72 2-6.08 3.645-10.72 5.468-15.15.102-.25 1.287-3.39 1.407-3.69.505-1.29.912-2.18 1.375-2.85.224-.32.468-.61.781-.87.639-.53 1.439-.86 2.437-.78 1.155.09 2.004.72 2.532 1.56.268.43.427.87.531 1.35.788 3.57.208 6.76-1.563 10.96.421-.33.837-.62 1.376-.78.212-.06.438.02.656 0 .319-.65.967-2.03.968-2.03 1.241-2.49 1.796-3.59 2.438-4.97.199-.43.513-1.19.969-2.34.031-.08 1.001-2.58 1.125-2.88.079-.19.158-.33.218-.46.044-.1.079-.2.126-.29.114-.21.213-.39.406-.62.282-.4.282-.4 1.812-1.06 1.435-.06 1.431-.04 2.719.81.709.9.709.9.875 1.47.122.73.145.72.125 1-.018.21-.042.21-.063.34-.031.2-.056.4-.124.66-.518 1.93-1.068 3.92-1.719 6.31-.213.78-4.435 16.36-5.188 19.25-1.54 5.91-2.627 10.95-3.75 16.06.574-1.64 1.23-3.39 1.844-5.09.243-.99.798-3.29.844-3.47 1.489-5.85 2.934-11 4.906-17.31 1.32-4.23 2.859-8.58 4.75-13.47.025-.07.69-1.74.75-1.88.305-.72.557-1.25.844-1.68.157-.24.336-.44.562-.66.598-.57 1.327-.97 2.407-.91 1.435.09 2.36.96 2.781 2 .163.41.226.78.25 1.16.25 4.15-.662 7.2-3.375 13.59-.048.12-.059.14-.094.22.03.07.099.09.125.16.593 1.47.854 3.31.937 5.37 1.306-2.94 2.644-5.81 4.094-8.59.137-.26.238-.47.406-.69.358-.47.702-.79 1.438-1.06 1.408-.33 1.4-.33 3.125.56.89 1.12.897 1.11 1.031 1.75.084.42.071.73.032 1.07-.016.13-.037.25-.063.37-.033.16-.072.31-.125.5-.016.06-.117.37-.156.5 1.147.03 2.23.53 3.125 1.5.091-.21.158-.47.25-.69.091-.21.168-.38.25-.53.053-.1.061-.09.156-.25.126-.2.113-.19.563-.66.403-.34.421-.34 1.531-.71 1.775.04 1.782.01 3.031 1.15.702 1.58.687 1.59.625 2-.013.48-.045.57-.281 1.35-.15.49-.229.83-.782 2.53-.005.01-.649 1.95-.781 2.4-.271.93-.66 2.33-1.062 3.72.236 1.86.426 3.81.531 6.1.073-.19.335-.81.375-.91.149-.38.344-1.11.687-2.66.163-.73.202-.93.282-1.28.317-1.36.555-2.18.906-2.87.185-.37.383-.69.688-1a3.27 3.27 0 0 1 2.531-1.03c1.79.05 2.584 1.02 3.125 2.37 1.104 2.75 1.177 5.64.406 8.81-.536 2.21-1.203 3.87-2.875 7.63-.039.09-.055.1-.094.19-1.44 3.23-2.032 4.77-2.437 6.47-.999 4.17-.739 3.25-1.156 5.03.84-2.3 1.094-2.87 4.031-10.03.233-.57.459-1.37 1.031-3.57.228-.87.356-1.36.5-1.87.45-1.61.796-2.61 1.281-3.41 1.7-2.78 5.252-2.4 6.469.63.648 1.61.745 3.63.594 5.87l.031.03c.527.58.727 1.16.813 1.78.039.29.048.58.031.85-.032.51-.116.94-.313 1.78-.013.06-.018.07-.031.12-.146.62-.175.79-.187.88-.031.22-.115.76-.157 1.06-.404 2.92-.676 4.62-1.062 6.47-.383 1.83-1.495 6.51-1.5 6.53-.942 3.95-1.36 5.74-1.781 7.94-.116.6-.376 2.25-.376 2.25-.398 2.43-.614 3.51-1 4.9-.035.13-.346 1.41-.468 1.85-.141.51-.276.95-.406 1.34-.281.84-.541 1.4-.969 1.94-.823 1.04-2.072 1.71-3.75 1.06-.349-.13-.539-.34-.781-.53-.245.81-.608 2.34-.813 2.91-.019.05-.195.75-.219.84-.215.89-.39 1.44-.75 2.06-.789 1.37-2.204 2.28-3.968 2.03-.519-.07-.927-.27-1.344-.46-.093.03-.121.12-.219.15-2.994.84-4.966-1.19-5.219-3.87-.103-1.1.036-2.29.344-4.13-1.254 3.5-2.509 5.96-3.906 7.53-1.502 1.7-4.135 1.58-5.375-.4-.392-.63-.545-1.22-.657-2-.113-.8-.148-1.84-.124-2.66v-.06c-.941 2.15-2.235 3.72-4.282 5.06-2.538 1.66-4.893.05-5.468-2.28-.191-.77-.247-1.61-.219-2.75.006-.26.062-1.64.062-1.81.008-3.03.308-5.5.469-8.19-.027.1-.066.27-.094.37-.174.65-.644 2.5-.687 2.66-1.189 4.55-1.837 6.83-2.813 9.47-.05.14-.704 1.91-.937 2.53-.175.47-.31.9-.469 1.28-.463 1.12-.876 1.92-1.375 2.53-.806 1-1.813 1.64-3.406 1.32-1.634-.34-2.321-1.39-2.657-2.69-.428-1.67-.622-3.57-.812-5.47-2.129 1.5-4.755.41-5.406-2.06-.821-3.12-.739-6.1-.063-10.53.075-.5.145-.91.281-1.75.241-1.48.309-2.1.407-2.85-.018-.36-.024-.75-.031-1.12-.549 1.43-2.016 2.15-3.5 1.84-1.148 5.36-2.22 9.14-4.25 12.63-.23.39-.481.71-.876 1.03-1.195.98-3.081 1.13-4.374-.28-.571-.63-.756-1.19-.844-1.85-.684 1.5-1.472 2.92-2.532 4.31-.369.49-.742.88-1.281 1.19-1.241.71-2.864.63-4-.53-.933-.95-1.054-1.79-1.031-3.16.016-.99.176-2.2.5-4.28.036-.23.026-.24.062-.46.365-2.31.415-2.68.469-3.26.548-5.78 1.324-11.58 2.219-17.43-.044.16-.343 1.31-.344 1.31-.962 3.6-1.447 5.26-2.218 7.31-.049.13-.391 1.11-.5 1.41-.271.74-.51 1.29-.813 1.81-.268.46-.561.87-.969 1.22-.809.69-1.89 1.04-3.094.75a3.536 3.536 0 0 1-1.968-1.28c-1.818-2.34-2.481-5.12-2.282-8.31.077-1.23.564-2.9.876-4.29-.241.04-.402.17-.688.16-1.722-.07-2.573-1.1-2.969-2.31-.211-.65-.27-1.29-.25-2.16.021-.9.096-1.82.25-3.19.31-2.75.877-5.55 1.719-8.81.415-1.6 3.068-10.01 5.344-16.87 4.695-14.16 5.443-16.16 7.468-16.97.537-.21.542-.21 1.688-.19 1.468.53 1.473.52 2.281 1.69.326 1.31.28 1.38.219 1.65.627.31 1.113.79 1.438 1.38.094.17.128.34.187.5 2.339-7.65 4.904-13.46 8.219-17.94.314-.42.619-.73 1.094-1.03.633-.39 1.382-.59 2.124-.5ZM371.188 253.031c-3.437 17.542-5.448 27.72-7.5 38.188a34.365 34.365 0 0 1 3.656 3.719l2.406-26.438c.626-6.63.935-10.041 1.438-15.469Zm-46.063 26.657c-.638.948-1.22 1.944-1.844 2.906-.081 1.051-.151 1.803-.25 3.031.752-2.093 1.446-4.08 2.094-5.937Zm22.094 10.093c.336.179.621.278.969.469.538.296 3.19 1.805 3.312 1.875 1.781 1.018 3.433 2.182 5 3.406.061-.313.214-1.157.281-1.5-2.875-1.918-5.989-3.482-9.562-4.25Zm15 9.031c-.059.298-.294 1.432-.344 1.688a46.969 46.969 0 0 1 7.031 10.25c-.144-.453-.214-.927-.375-1.375-.289-.808-.73-1.454-1.062-2.219-.419-.396-.57-.901-.719-1.468-1.264-2.576-2.776-4.867-4.531-6.876Zm-24.531 8.657c-1.349-.072-2.65.279-3.938.843-.73 1.281-1.368 2.731-1.906 4.438 1.875-1.985 3.943-3.544 6.218-4.281.112-.25.198-.615.313-.844-.229-.032-.459-.144-.687-.156Zm22.906 1.187a46.873 46.873 0 0 1 1.844 4.156c.021-.085.039-.202.062-.281.031-.106.088-.211.125-.312-.668-1.197-1.237-2.438-2.031-3.563Zm-57.032 14.563c-1.288 5.081-1.575 9.934-.343 13.875.168.539.515 1.083.719 1.625.211-1.429.465-2.831.687-4.25-.786-3.797-1.197-7.589-1.063-11.25Zm19.282 3.375c-1.048 6.111-.473 11.474 1.844 14.625.001-.223.077-.619.093-.875-.968-2.73-1.149-6-.75-9.532-.488-1.324-.871-2.728-1.187-4.218Zm44.812 7.5c-.507.939-1.009 1.833-1.562 2.656-.257 3.98-.912 7.768-2.063 11.219.33-.533.695-1.048 1-1.594 1.566-3.978 2.389-8.115 2.625-12.281ZM297 337.719c-4.687 13.942-8.574 28.677-11.531 44.343-7.264 38.484-9.314 80.675-7.438 128.626.929 23.734 2.764 47.809 5.313 72.156-.031-3.155-.116-6.318-.125-9.469-.205-72.163 5.257-141.06 16.75-201.937.676-7.507 1.542-14.815 2.469-22.063-2.176-3.4-4.053-6.873-5.157-10.406-.125-.4-.179-.838-.281-1.25Zm48.875 16.093c-5.75 2.97-12.695 3.494-20.5.719 4.171 2.445 9.31 3.329 15.281 2.063 1.974-.419 3.64-1.272 5.156-2.313.026-.159.037-.308.063-.469Zm-36.687 4.094c-1.058 5.004-2.222 9.87-3.188 15-3.16 36.156-3.618 75.774-1.812 120.813.994 24.796 2.853 49.537 5.343 74.375.371-.957.927-2.05 1.719-3.344-2.676-45.271-3.711-90.816-2.969-136.75.321-19.82 1.19-40.573 2.625-63.719.073-1.167.214-2.81.313-4.187-.731-.689-1.34-1.467-2.031-2.188Zm7.937 6.938c-1.423 22.978-2.307 43.589-2.625 63.25-.69 42.659.199 84.977 2.469 127.062.684-.451 1.442-.805 2.343-.906.621-.664 1.237-1.414 1.844-2 3.239-3.127 5.909-4.855 8.469-4.781.674-55.854 5.15-113.572 13.187-173.313-7.831.004-15.982-2.667-23.624-7.687-.732-.48-1.353-1.111-2.063-1.625Zm-20.219 68.5c-5.109 44.215-7.575 91.356-7.437 140.031.069 24.47.902 49.061 2.312 73.781 11.224 71.403 28.007 144.661 51.063 225.719 17.912 62.977 36.118 119.939 69.625 220.345.067-.33.116-.67.187-1 .593-2.81 3.05-13.26 3.875-16.78-16.913-47.81-32.142-96.128-45.406-145.065-4.412-16.277-8.558-32.555-12.5-48.844-1.278-.141-2.504-.533-3.625-1.437-2.147-1.732-3.483-4.886-4.594-9.469-.033-.136-.062-.301-.094-.437-.247-.189-.479-.4-.718-.594-.101-.059-.214-.057-.313-.125-.12-.083-.139-.225-.25-.313-6.376-5.405-10-12.89-10.781-21.687-.267-3.011-.107-6.122.281-9.25-.242-5.834.395-11.521 2-16.25.73-2.148 1.965-4.742 3.344-7.281-6.178-30.498-11.678-61.03-16.25-91.657-16.755-79.292-26.641-153.849-29.656-229.062-.866-21.599-1.25-41.622-1.063-60.625Zm79.844 135.844c.047 1.326-.086 2.827-.312 4.437.259.657.434 1.633.624 2.531.047-.129.143-.308.188-.437.028-.079.07-.242.125-.469.076-.315.151-.719.25-1.219.015-.076.3-1.42.406-1.937-.392-1.017-.836-1.955-1.281-2.906Zm-39.031 37.5c.122.472.168 1.025.312 1.468a14.131 14.131 0 0 0 2.657 4.813c-.118-.821-.249-1.609-.344-2.5-.743-.722-1.49-1.42-2.063-2.407-.236-.407-.361-.928-.562-1.374Zm23.312 21.437c-.586.381-1.177.747-1.781 1.094.189.111.338.268.531.375.332-.292.823-.934 1.25-1.469Zm-38.219 4.187c2.929 29.997 6.52 59.904 10.969 89.719 4.336 20.501 9.208 41.428 14.5 62.688-7.099-46.876-12.573-94.04-15.969-141.438-.174-2.43-.248-4.906-.406-7.343-2.135-.431-4.02-.987-5.875-1.782-1.127-.483-2.192-1.117-3.219-1.844Zm-55.374 8.157c4.434 95.932 15.938 187.937 35.062 275.687 17.163 75.938 44.193 149.954 73.344 221.904 6.475 15.99 11.297 32.34 18.562 48.03.122.27.253.52.375.79-37.595-117.41-72.009-244.015-93.937-348.942-14.678-70.234-25.765-135.389-33.406-197.469Zm29.343 69.812c11.575 114.1 36.821 231.264 74.969 353.099 23.293 74.38 45.691 137.14 70.5 195.5 13.301 31.28 27.223 60.9 41.844 89.12 19.503 28.54 40.892 56.83 64.125 85.19-26.119-46.18-49.324-93.64-70.969-145.16-19.803-47.13-38.091-96.84-59.844-160.81-.425-.4-.785-.89-.968-1.5-.233-.78-.226-1.59-.344-2.38-.26-.76-.521-1.51-.782-2.28-.062.13-.134.28-.187.38-.247.44-.475.8-.75 1.12-.72.84-1.563 1.39-2.937 1.28-2.877-.23-4.226-2.45-4.032-5.06.09-1.2.376-2.26 1.094-4.31.037-.11.058-.12.094-.22.581-1.65.775-2.3.844-2.78.339-2.36.557-3.38.843-5.25-.903-2.69-1.708-4.94-2.625-7.69-34.326-102.801-52.648-160.076-70.812-223.936-16.51-58.046-29.685-112.032-40.063-164.313Zm82 83.594a9.721 9.721 0 0 0-2.843.594c-.41.15-.786.443-1.188.625 7.111.513 13.065 2.603 17.781 6.156.555-.678 1.194-1.075 1.813-1.531-.97-.538-1.848-1.087-2.906-1.625-.165-.084-1.326-.662-1.563-.782-4.865-2.458-8.168-3.604-11.094-3.437Zm-6.625 7.25c-.641-.012-1.286.121-1.937.25.428.728.696 1.569.625 2.5.169-.47.295-.972.468-1.437.094-.251.182-.462.313-.688.141-.245.401-.427.594-.625h-.063Zm4.688.375c.158.224.342.43.437.688.158.424.182.744.188 1.093.002.131.01.229 0 .375-.011.143-.039.269-.063.438-.028.196-.079.538-.156.968.319.072.657.102.969.188.044-.016.081-.046.125-.062.094-.47.373-1.725.5-2.344v-.032c.019-.177.035-.192.031-.156.014-.068.058-.326.063-.344.004-.036.082-.227.124-.343-.735-.16-1.441-.358-2.218-.469Zm23.594 2.062c-.089.558-.187 1.307-.188 1.313-.182.912-.249 1.326-.25 1.469v1.125c.897-.887 2.024-1.448 3.562-.875 1.684.627 2.44 2.003 2.782 3.562.065.028.122.033.187.063 1.345.623 2.179 1.933 2.875 3.656.071-.057.012-.029.094-.094.196-.072.26-.044.406-.093-2.17-3.907-5.287-7.122-9.468-10.126Zm-15.438.344c-.015.091-.04.15-.062.282-.03.169-.034.3-.063.468.102.03.212.031.313.063.684.227 1.296.595 1.874 1.031.089-.208.168-.309.25-.469-.754-.48-1.487-.977-2.312-1.375Zm20.438 20.594c-.005.635-.027.774-.032 1.344.386 2.814.54 5.736.532 8.718.087-1.877.119-3.766.25-5.531-.006-.039-.022-.06-.032-.125-.331-2.338-.489-2.965-.718-4.406Zm-58.5 5.438c-.962 2.801-1.731 5.638-2.126 8.5.181 3.489.804 6.993 1.719 10.406-.615-5.283-.614-9.99.375-14.813.124-.604.374-1.187.563-1.781-.165-.772-.368-1.54-.531-2.312Zm36 .687c-.042.18-.15.48-.188.656.147 1.778.246 3.515.531 5.375.027.172.128.457.157.625.038-.742.02-1.871.093-2.593.03-.292.071-.536.125-1.063.079-.769.059-.865.125-1.531-.253-.503-.572-.972-.843-1.469Zm22.781 8.437a78.497 78.497 0 0 1-1.219 9.626c-.025.334-.036.423-.062.781.295.37.565.639.843.937.114-1.154.271-2.969.375-4.156-.017-1.26-.101-2.289-.094-3.656.007-1.19.127-2.322.157-3.532Zm8.531 13.126c-.199.532-.347 1.101-.594 1.593-.348.694-.804 1.148-1.218 1.688.056.452.061 1.052.124 1.469.141.917.329 1.393.5 2.093.469-1.74.91-3.77 1.188-6.593.008-.077-.008-.173 0-.25Zm-10.344 5.093-.218 3.531c-.258 4.586-.426 6.677-.719 9.282-.296 2.626-.69 4.459-1.094 6.375 1.092-2.072 1.971-5.964 2.5-11.344.181-1.846.314-3.793.437-6.031.019-.33.034-.742.063-1.313-.327-.133-.642-.314-.969-.5Zm-17.781 14.75c-.18.064-.381.069-.563.125-.294 1.526-.633 3.628-.968 5.032-.194.807-.631 1.842-1 2.812 1.173-1.036 2.312-2.321 3.406-3.781.031-.135.063-.311.094-.438.034-.141.06-.296.094-.437a62.494 62.494 0 0 1-1.063-3.313Zm8.687 3.344c-.2.343-.388.697-.593 1.031.279.64.597 1.246.875 1.75.055-.157.1-.195.156-.375-.002-.009.002-.021 0-.031-.185-.765-.272-1.599-.438-2.375Zm-20.25 1.156c-.151.902-.334 1.681-.5 2.469.391 1.338.794 2.658 1.188 4 .2-.311.362-.72.562-1.062a60.914 60.914 0 0 1-1.25-5.407Zm-7.843 11.625c.84 3.404 1.607 6.815 2.469 10.219-.737-3.389-1.373-6.796-2.094-10.187-.128-.01-.247-.011-.375-.032Zm15.093 37.969c10.849 46.283 23.613 92.105 38.063 137.435.155-.49.217-.75.375-1.25.584-1.82 1.084-3.33 1.375-4.12.091-.25.177-.46.25-.63.105-.23.166-.38.344-.62.208-.52.207-.53 2.843-1.28.683.47.786.59 1.188.87-12.848-34.42-25.003-68.958-36.25-103.936-2.908-9.044-5.421-17.61-8.188-26.469ZM513.344 967c42.057 129.46 101.911 253.01 178.218 367.22-29.14-59.04-58.987-117.85-88.062-176.91-5.433-11.03-9.206-22.83-14.375-34-10.551-22.78-22.903-44.81-33.937-67.37-14.378-29.4-28.437-59.027-41.844-88.94Zm-174.094 6.188c21.506 82.762 47.28 170.052 74.188 251.002.178.53.685 2.08.968 2.93 12.345 24.37 25.335 48.4 38.406 72.38.956 1.57 1.881 3.15 2.844 4.72-6.51-13.99-12.919-28.24-19.156-42.91-24.899-58.57-47.338-121.49-70.688-196.06-9.7-30.98-18.528-61.65-26.562-92.062Zm96.781 109.192c-.879 3.85-1.684 7.48-2.469 10.31-.476 1.71-1.381 4.97-1.718 6.22-.032.19-.063.42-.094.62.285.77.589 1.54.875 2.31.582-1.72 1.241-3.61 1.625-4.81.71-4.76 1.515-9.02 2.312-13.34-.169-.44-.361-.88-.531-1.31Zm15.625 2.15-1.656 4.88c-1.096 3.21-1.596 4.76-2.031 6.21.229.59.457 1.17.687 1.76.543-1.26.692-1.62 1.313-3.07.549-3.27 1.04-6.61 1.687-9.78Zm-31.25 1.81c-.719 3.1-1.408 5.99-1.656 7.16-.13.61-.222 1.24-.344 1.84.462-1.16.693-1.92 1.282-3.34.209-.51.763-1.82 1.218-2.91.055-.32.111-.65.156-.93-.218-.61-.438-1.21-.656-1.82Zm24.469 41.47c-.168.53-.358 1.37-.563 1.91-.13.34-.413.77-.624 1.19 26.774 69.06 57.388 137.04 91.906 204.03.381-2.22.757-4.45 1.187-6.63a3.672 3.672 0 0 1-1.906-1.65c-1.571-2.85-1.613-7.45-.531-13.6-.088.06-.161.17-.25.22-2.187 1.32-4.72.73-6.125-1.53-1.343-2.16-1.775-5.15-1.657-8.91-.105-.35-.213-.67-.25-1.12-.033-.41-.031-.88 0-1.44.052-.91.201-2.14.407-3.66.207-1.53.632-3.8.969-5.81-25.534-52.31-48.845-103.66-70-154.81-.926.4-1.932.5-3.063.12-.339.23-.648.52-1 .69-2.314 1.14-4.875 1.1-6.281-1.43-1.323-2.39-1.944-4.86-2.219-7.57Zm20.563 2.47c-.088.13-.163.39-.25.5-.708.93-1.546 1.52-2.407 1.84.619 1.5 1.284 3.01 1.907 4.5-.083-.41-.181-.82-.188-1.28-.021-1.42.228-2.64.875-5.25.012-.04.02-.04.031-.09.031-.13.003-.1.032-.22Zm-35.5 1.25c-.377.81-.828 1.65-1.25 2.31-.485.76-.923 1.32-1.563 1.75-.081.06-.168.05-.25.1 20.164 58.84 37.461 105.51 56.125 149.93 26.435 62.93 55.036 119.83 88.719 175.63 19.917 23.09 41.156 46.28 63.781 69.75 2.024 2.1 6.119 6.04 9.031 8.94-16.889-24.21-29.886-43.4-41.593-62.41-67.294-109.26-122.577-224.6-165.719-343.87-.489.79-1.047 1.44-2 1.78-2.065.74-3.645-.37-4.531-2-.349-.64-.552-1.27-.75-1.91Zm159.531 160.19c-.057.11-.067.19-.125.31-.135.28-.27.54-.469.94-.428.86-.41.95-.687 1.53-.528 1.87-.813 3.15-1.469 5.38-.128.43-.122.44-.25.87-.68 2.31-.92 3.46-1.469 5.41 1.772-5.79 3.896-12.79 4.469-14.44Zm-35.75 2.19c-.887 2.2-1.726 4.63-2.563 7.18-.83 3.72-1.635 7.45-2.187 11.35.077-.38.199-.81.281-1.19.935-4.37 2.222-9.31 3.812-14.75.255-.94.378-1.58.657-2.59Zm32.781 41.31c-.923 1.66-1.519 2.61-2.312 4-.023.52 0 .99 0 1.5.6-1.22 1.4-2.51 1.656-3.34.184-.6.385-1.27.656-2.16Zm-11.625 1.81c-.222 1.29-.326 2.21-.844 4.66-.234 1.1-.363 1.75-.5 2.43-.063.32-.098.54-.156.85.905-1.34 2.087-3.17 3.094-4.85.214-1 .323-1.31.5-2.12-.841-.06-1.533-.42-2.094-.97Zm-65.844 56.41c9.72 16.73 19.717 32.98 30.125 48.65 19.83 29.87 41.373 57.11 67.563 86.57 1.597 1.64 3.157 3.31 4.781 4.93 13.465 13.44 28.716 28.92 46.344 36.97 3.363 1.54 6.924 2.54 10.531 3.38-1.092-1.54-2.153-3.02-2.937-4.13-.524-.74-.705-1.02-1.219-1.75-13.652-13.07-23.673-22.85-33.188-32.72a1711.545 1711.545 0 0 1-60.469-66.09c-.871-.14-1.692-.56-2.187-1.37-.641-1.06-1.207-2.14-1.844-3.19-20.504-23.81-39.656-47.49-57.5-71.25Zm162.531 66.78c-.295.73-.926 1.88-1.124 2.56-1.286 4.45-2.342 8.84-3.407 13.22.56-1.52 1.133-2.98 1.719-4.5.207-.97.456-2.26.656-3.16.789-3.53 1.476-5.74 2.156-8.12Zm33.813 1.97c-.88 1.68-1.726 3.8-2.625 6.43-1.028 3.02-1.801 6.55-2.656 11.16 1.846-5.62 3.796-10.68 5.718-15.66-.138-.68-.273-1.39-.437-1.93Zm-17.313 12.47c-.375 1.16-.791 2.36-1.031 3.12-1.528 4.87-2.658 9.08-3.781 13.28-.043.18-.152.58-.188.72-.246.99-.972 3.89-1.718 6.81-1.415 6.23-2.391 11.87-2.75 16.75.129-.48.199-.57.344-1.12.042-.17.54-2.05.718-2.72.42-1.57 1.404-5.74 1.406-5.75.806-3.45 1.179-5.01 1.719-6.94.885-3.16 1.715-5.86 2.563-8.72.066-.67.08-1.2.156-1.9.147-1.38.422-3.06.875-5.35.269-1.36 1.445-6.93 1.344-6.43.138-.68.224-1.16.343-1.75Zm18.719 11.31c-.38 1.4-.811 2.92-1.093 4.09a106 106 0 0 0-1.376 6.75c-.347 2-.758 4.98-1.156 7.81.136-.55.236-.79.375-1.37.361-1.5 2.243-9.55 2.75-11.63.16-.65.258-.81.407-1.4.053-1.56.06-2.91.093-4.25Z"/><path d="M450.969 231c-.672.342-1.351.671-1.875 1.25-.415.458-.501 1.046-.688 1.594l23.938-.438c.304-.359.593-.799.906-1.125.331-.343.737-.565 1.156-.719-7.901-.198-15.633-.376-23.437-.562Zm-2.563 2.844-3.031.062c-1.207 5.294-3.258 10.489-3.625 15.906-.698 10.315.928 20.673.469 31-.526 11.861-3.511 23.499-4.313 35.344-.786 11.618.219 23.376-.468 35-1.13 19.11-2.925 38.087-3.438 57.25-.36 13.429 1.168 26.669 1.312 40 .145 13.382-1.822 26.797-1.218 40.219.246 5.469.621 10.94.937 16.406.864-53.263 5.813-107.086 14.75-163.406-.202-5.406-.512-10.802-.625-16.219-.214-10.309-1.202-20.576-1.718-30.875-.648-12.939 1.28-25.976 1.374-38.937.029-3.887.075-7.77.126-11.656.042-3.269-1.521-7.197-.532-10.094Zm27.719-2.219c.539.121 1.105.182 1.531.594.026.024.01.067.032.093.117-.216.163-.452.312-.656-.645-.017-1.237-.014-1.875-.031ZM488 235.156c-1.223-.009-1.333.139-2.188.188.208.102.46.353.626.406 3.563 1.15 7.038 1.592 13.468 1.969.325.019.587.028 1.188.062 2.454.141 3.558.231 4.937.344 10.88.892 39.426 2.584 39.594 2.594 14.736.854 21.574 1.274 29.906 1.875 12.771.921 27.607 1.763 41.313 2.625 14.443-2.132 30.501-3.944 48.344-5.719-2.346-.411-4.687-.863-7.032-1.312-15.528-.137-28.377-.124-56.812.093-3.849.03-5.547.047-7.688.063-1.729.012-2.656-.011-4.312 0-6.366.711-12.748 1.335-19.156 1.468-9.858.205-19.759-.526-29.657-1.5-6.742-.073-13.631-.121-20.187-.281-.651-.016-10.169-1.181-12.75-1.469a355.562 355.562 0 0 0-7.532-.75c-4.787-.428-8.97-.633-12.062-.656Zm-10.156 1.188c-.065.086-.047.2-.125.281-2.964 3.073-5.531 8.659-7.844 16.219-.091 1.479-.014 2.999 0 4.5.224-.087.357-.273.594-.344 1.641-.495 3.393-.656 6-.656.387 0 .709.025 1.375.031 1.783.017 2.512 0 3.25-.063 12.328-1.045 23.709-1.451 43.594-1.812-.697-.201-1.356-.587-1.782-1.25-1.062-1.652-3.187-4.942-4.25-6.594-.298-.463-.249-.985-.281-1.5-3.557-.256-9.276-.551-12.844-.844-1.311-.107-5.64-.355-5.969-.374-6.929-.407-10.821-.892-15.031-2.25-1.685-.544-3.82-1.875-5.281-3.282-.667-.642-1.02-1.355-1.406-2.062Zm301.281 3.968c-1.128.157-2.148.554-3.031 1.344-2.492 2.231-3.11 5.686-3.344 9.282 33.131.836 147.397 3.064 161.125 3.343 77.325 1.572 135.195 3.333 189.065 6-.05-1.241-.28-2.397-1.16-3.281-3.09-3.102-8.74-.832-13.09-1.312-3.94-.435-7.88-.809-11.78-1.438-17.55-2.827-34.2-2.526-52-2.656-37.1-.272-74.044 2.805-111.222.531-28.833-1.764-57.345-7.278-86.219-8.375-18.978-.721-38.151-2.237-57.157-2.188-3.555.01-7.802-1.718-11.187-1.25Zm-59.687.688c-4.372.332-8.763.609-13.126.969-22.014 1.816-39.964 3.528-56.281 5.343 2.002.115 3.496.23 5.531.344 10.51.59 28.119 1.49 49.313 2.594 15.865-.145 33.093.04 51.656.406-.269-1.652-.745-3.183-1.969-4.281-3.258-2.923-8.74-.616-13.062-1.313-4.02-.647-7.954-1.876-11.938-2.718-3.438-.727-6.794-1.096-10.124-1.344Zm-194.032 4.625c.997 1.546 2.036 3.187 2.719 4.25a3.125 3.125 0 0 1-.937 4.313c-.494.317-1.052.296-1.594.312 1.251-.022 1.828-.072 3.156-.094.54-.009.522.009 1.062 0 10.48-.174 15.131-.267 20.938-.437 8.957-.263 18.308-.315 27.344-.531 2.195-2.694 4.985-3.472 10.031-3.813-4.099-.283-9.002-.522-13.031-.813-8.294-.598-29.988-1.865-30.156-1.874-9.765-.567-13.544-.915-19.532-1.313ZM1326 250.281c-1.62 0-3.26.152-4.88.25-.17.938-.26 1.601-.43 2.531.14.02.47.044.59.063.25.039.47.084.66.125.15.034.28.043.44.094.17.058.15.06.43.187.38.182.39.191 1.13.938.85 1.807.84 1.815-.1 3.875-.94.825-.95.821-1.4.968-.31.105-.54.16-.82.188-.22.023-.46.03-.78.031-.41.002-.83-.032-1.25-.031-.16.901-.27 1.606-.43 2.5 1.64.11 4.78.27 6.59.406 2.7.203 4.99.511 7.5.75.56-2.171 1.05-4.287 1.63-6.468-.47-1.9-1.2-3.628-2.69-4.75-1.75-1.315-3.91-1.656-6.19-1.657Zm-11.28.719c-2.64.29-5.27.599-7.91.812 1.65.122 3.9.154 5.5.313.02.001 1.17.109 2.19.219.09-.494.13-.848.22-1.344Zm-697.595.469c-2.814.417-5.515.931-8.281 1.375 7.598-.139 15.086-.361 22.75-.469-4.98-.299-9.662-.605-14.469-.906Zm535.065 1.406c-3.4 2.091-5.72 5.085-7.35 8.594 8.24.457 16.59.864 24.78 1.375 14.52.905 50.47 3.899 52.82 4.094.06.005 1.39.092 1.4.093 13.27.835 26.5 1.632 39.85 2.594 6.43.464 13.18 1.166 19.9 1.813 6.3.356 12.77.791 19.16 1.031 2.48.093 5.71.076 8.25.156.29-1.668.54-3.121.84-4.813-2.67-.156-3.36-.248-8-.5-13.15-.713-19.72-1.19-26.34-2-43.27-5.289-84.71-9.429-125.31-12.437Zm115.81 5.094c3.44.408 6.79.733 10.25 1.156 6.44.787 12.89 1.263 25.91 1.969 5.06.274 5.94.367 8.75.531.14-.783.23-1.4.37-2.187a828.812 828.812 0 0 1-45.28-1.469Zm-533.656.093c-27.502-.081-54.934-.147-81.5.126-.066.003-.122-.004-.188 0-16.849.866-38.757 2.035-47.5 2.75-1.68.137-3.074.35-6.218.906-1.521.268-2.207.366-3.063.5-3.424.536-6.078.718-8.75.468-1.859-.173-4.328-.822-6.156-1.656-.894-.407-1.469-.983-2.094-1.531-9.232.22-18.787.294-27.937.563-5.843.171-21.554.459-22.094.468-23.02.383-34.094.762-47.219 1.875-1.008.086-1.849.082-3.844.063-.645-.007-.951 0-1.312 0-1.429 0-2.153.124-2.969.25.644.109.977.266 1.906.344.566.047.595.051 2.156.156 1.245.083 1.941.131 2.626.218 5.121.653 10.157.842 18.062.844.864.001 6.848-.007 8.281 0 13.591.066 25.868-.072 48.063-.468 1.008-.019 24.732-.413 32.844-.5 56.285-.604 112.987.641 170.531 3.374-.225-2.534-.482-5.053-.844-7.562-1.144-.059-3.002-.159-4.156-.219-5.109-.263-10.791-.567-18.625-.969Zm144.594 1.782c22.271 1.274 57.668 3.251 60.906 3.437 74.476 4.293 130.346 7.253 181.126 9.531.22-1.385.48-2.757.65-4.156.03-.231.12-.51.16-.75-37.61-1.653-80.34-3.244-132.686-5a9727.443 9727.443 0 0 0-110.156-3.062Zm-106.407.281c-.035 2.449.061 4.896.157 7.344 24.95 1.304 50.041 2.825 75.406 4.75 38.041 2.886 140.531 10.005 147.312 10.469 18.134 1.24 26.944 1.902 42.314 2.968 7.21-.078 12.7-.112 25.53-.281 27.63-.364 40.39-.479 55.47-.531.41-1.944.83-3.894 1.22-5.844-50.62-2.274-106.34-5.227-180.471-9.5-9.919-.572-17.713-1.016-35.75-2.062-65.436-3.795-95.853-5.453-131.188-7.313Zm545.559 8.063c-.28 1.601-.5 2.982-.78 4.562 4.22.115 9.03.166 13.47.25.31-1.229.63-2.455.94-3.688-2.21-.212-4.07-.508-6.44-.687-1.96-.148-5.38-.317-7.19-.437Zm-848.371.187c-.04.664.01 1.341-.063 2-3.34 30.265-5.616 60.823-6.594 91.219-1.717 53.418 14.238 106.126 23.25 158.156 6.073 35.058 9.558 70.74 16.813 105.75 10.625 51.281 25.614 101.468 46.969 149.375 6.771 15.191 11.947 30.841 18.718 46.031 15.696 35.212 33.075 69.687 47.844 105.313 17.546 42.324 32.935 85.811 53.813 126.721 20.77 40.7 42.361 81.08 63.437 121.72a1253.212 1253.212 0 0 1-25.844-94c-23.532-100.771-37.156-209.276-44.656-338.691a3.111 3.111 0 0 1 2.938-3.281 3.112 3.112 0 0 1 3.281 2.937c7.481 129.087 21.059 237.25 44.5 337.625 10.905 46.7 23.973 91.12 39.25 133.59 3.756 7.46 7.603 14.89 11.281 22.38 16.969 34.57 37.032 67.59 53.969 102.09 7.788 15.87 14.934 32.08 22.156 48.25-11.219-19.56-22.451-39.11-33.531-58.78-5.791-10.28-12.768-19.83-19.219-29.72 15.575 33.47 32.726 65.69 51.875 96.5 7.864 12.65 16.317 25.15 25.25 37.56 3.82-.96 7.703-1.93 12.375-3.03.73-.17.708-.17 1.438-.34 8.87-2.08 12.916-3.05 17.812-4.34 1.153-.31 1.682-.48 4.25-1.16 36.082-9.57 54.905-14.13 74.781-18.25-1.6-2.56-2.499-3.97-4.218-6.72-1.065-1.7-4.958-7.95-4.656-7.47-20.955-33.54-31.642-50.35-44.438-69.47a3.096 3.096 0 0 1 .844-4.31c.715-.48 1.56-.62 2.344-.47.782.16 1.489.6 1.968 1.32 12.844 19.18 23.575 36.02 44.563 69.62-.301-.48 3.592 5.77 4.656 7.47 1.967 3.15 3.521 5.59 5.406 8.59.856-.17 1.726-.39 2.594-.56 100.115-19.62 201.255-30.91 347.435-41.25 23.57-1.67 111.41-7.47 121.63-8.16 1.71-.11 3.2 1.16 3.31 2.88.11 1.72-1.19 3.23-2.91 3.34-10.21.69-18.91 1.25-36.53 2.41-43.29 2.85-61.51 4.08-85.06 5.75-145.95 10.32-246.85 21.57-346.656 41.12-.094.02-.188.05-.282.07 14.228 22.6 26.498 41.65 37.378 57.84 12.68-.38 25.1-.72 38.19-1.16 71.88-2.38 129.41-4.78 258.81-10.56 90.11-4.02 143.79-6.24 193.31-8.12-11.93-13.2-23.13-27.08-33.81-41.32 12.62 14.21 25.86 27.87 39.25 41.1 19.66-.74 40.06-1.56 60.09-2.22.09 0 .14.09.22.09-7.83-16.05-15.56-31.96-23.03-47.37-41.7-49.91-76.71-99.86-105.03-151-21.16-38.22-38.83-78.61-54.57-123.56-13.19-37.7-24.68-77.27-38.03-129.224-24.28-94.468-43.66-186.546-58.84-280.125-.54-3.314-1.05-6.515-1.87-11.531-3.53-21.552-4.77-29.12-6.44-40.125-6.25-41.116-9.36-72.527-9.63-103.813-.45-52.645 3.22-106.99 10.75-166.624 1.94-15.357 4.18-31.02 6.63-47.126-52.08-5.922-105.06-10.935-159.1-15.156-.69 13.235-1.25 26.479-1 39.719.44 22.75 3.82 45.362 5.38 68.063 4.84 70.425 10.21 140.122 21.81 209.906-.65-2.035-1.33-4.058-1.87-6.125-9.94-37.735-15.56-76.102-24.13-114.094-6.61-29.318-13.46-59.058-17.75-88.844-5.15-35.756-9.45-73.936-8.5-110.625-91.78-6.677-186.769-11.117-286.592-13.437-15.243-.355-33.741-.573-50.407-.844 1.182 8.791 2.371 17.587 3.344 26.406 3.673 33.283 5.392 66.843 11.063 99.844 1.47 8.556 4.694 16.726 6.343 25.25.978 5.057 5.48 18.676 1.5 15.406-5.877-4.829-6.096-13.981-8.531-21.187-3.64-10.766-6.798-21.687-9.656-32.688-6.533-25.148-13.346-50.273-17.782-75.875-2.137-12.343-2.686-24.889-3.187-37.437-10.05-.143-17.879-.344-28.969-.469-15.825-.178-93.666-.91-107.781-1.063-3.047-.033-34.484-.69-37.437-.75-11.899-.238-18.523-.22-25.594-.218-14.083.491-25.673.994-36.594 1.656-.528.032-1.099-.053-1.625-.062-2.092.242-4.664.524-4.719.531-4.608.604-6.816.857-9.531 1-.448.023-3.024.377-3.25.406-1.908.243-3.157.311-4.25.187-2.89-.327-5.008-2.777-3.187-5.843 1.833-3.09 4.836-4.54 8.656-4.688 2.5-.097 4.532.214 9.344 1.188.108.022.11.009.218.031 3.212.65 4.993.909 6.532.969.849-.088 2.153-.28 3-.344 10.209-.768 17.939-1.203 25.5-1.344 2.103-.039 7.036.095 9.718.094.722-.025 1.139-.069 1.875-.094 4.784-.163 8.639-.294 17.219-.562 23.715-.742 34.235-1.122 47.406-1.813 50.379-2.641 92.916-4.702 132.688-6.531-.34-6.903-.536-13.873-.938-20.813-57.678-2.758-114.505-4.011-170.906-3.406-8.092.087-31.772.514-32.781.532-22.239.397-34.567.535-48.219.468-1.413-.007-7.379.001-8.25 0-8.148-.002-13.399-.212-18.844-.906-.521-.066-1.128-.112-2.25-.188-.534-.035-1.893-.126-2.25-.156-2.242-.187-3.783-.535-5.187-1.031Zm672.751.625c-.31 1.549-.52 3.137-.69 4.75 23.3.98 46.05 1.839 68.78 2.562 15.91.507 28.6 1.151 57.1 2.813 1.5.088 2.16.139 3 .187 18.28 1.065 28.07 1.474 38.87 1.907.04-.221.06-.435.09-.657-9.27-1.073-18.67-2.166-26.34-2.906-15.38-.869-31.93-2.04-59.97-4.406-.03-.002-.06.002-.09 0-25.2-1.585-52.46-2.913-80.75-4.25Zm-369.626 4.719c.379 5.34.948 10.676 1.468 16 .114 1.16.314 2.309.438 3.469 72.64-3.253 132.681-5.372 189.719-6.438-47.636-3.28-83.625-5.792-116.844-8.312-25.152-1.909-50.038-3.42-74.781-4.719Zm368.686 6.25c-.04 1.663-.08 3.303-.06 4.937 46.23.24 84.39 1.837 120.81 5.656 1.46.154 12.38 1.279 14.44 1.5 5.38.579 9.81 1.072 14.06 1.594 5.56.684 10.87 1.585 16.19 2.406.48-2.824 1-5.798 1.5-8.687-10.9-.464-20.26-.799-38.19-1.844-.83-.048-1.5-.069-3-.156-28.44-1.659-41.07-2.34-56.9-2.844-22.77-.724-45.52-1.582-68.85-2.562Zm173.19 7.719c-.53 3.092-1.08 6.294-1.6 9.312 1.7.281 3.33.445 5.07.75 2.56.449 4.34.82 6.4 1.219.82-3.586 1.55-7.103 2.41-10.719-.41-.012-1.11-.019-1.5-.031-3.04-.094-7.78-.417-10.78-.531Zm18.81.718c-.94 3.94-1.92 7.908-2.81 11.813 1.84.423 3.47.887 5.03 1.343.21-4.354.25-8.641.5-13.093-.94-.022-1.83-.041-2.72-.063Zm-192.09 2.719c.02.718.01 1.307.03 2 33.22 2.5 64.08 4.926 94.28 7.594 8.19.723 14.56 1.336 29.63 2.875 17.16 1.753 25.1 2.546 34.78 3.344 1.72.142 3.23.216 4.9.343.27-1.6.57-3.443.85-5.062-5.23-.802-10.44-1.703-15.91-2.375-4.21-.518-8.58-1.019-13.94-1.594-2.05-.221-12.97-1.347-14.44-1.5-36.18-3.795-74.15-5.385-120.18-5.625Zm-103.56.813c-4.25.047-13.81.141-15.57.156-76.535.628-149.663 2.87-246.81 7.281.25 2.084.482 4.169.75 6.25 17.016.266 35.817.483 51.344.844 99.833 2.32 194.856 6.758 286.656 13.437.19-4.375.39-8.744.75-13.062.26-3.132.7-6.226 1.22-9.282-24.25-1.769-47.64-3.494-78.34-5.624Zm103.65 7.437c-.01.283.01.696 0 .969-.32 7.187-.73 14.372-1.12 21.562 54.25 4.239 107.45 9.268 159.75 15.219 1.15-7.475 2.55-15.832 3.84-23.687-1.49-.116-2.84-.186-4.38-.313-9.72-.802-17.67-1.555-34.87-3.313-15.03-1.535-21.38-2.154-29.53-2.874-29.81-2.634-59.96-5.034-93.69-7.563Zm-381.936.75a19068.46 19068.46 0 0 0-86.813 4.219c24.999.242 49.855.466 58.438.562 10.955.123 18.683.332 28.625.469-.074-1.75-.164-3.502-.25-5.25Zm552.466 3c-.24 1.466-.54 3.144-.78 4.594 3.81.257 7.59.48 11.19.656.24-1.101.5-2.209.75-3.313-1.98-.383-3.67-.756-6.13-1.187-1.72-.303-3.35-.471-5.03-.75Zm17.28 3.187c-.17.789-.32 1.558-.5 2.344 1.78.065 3.66.175 5.41.219.33.008.9.156 1.22.187 0-.364.02-.757.03-1.124-1.79-.572-3.89-1.102-6.16-1.626Zm-19.12 7.563c-1.31 7.956-2.71 16.407-3.88 23.969 3.28.378 6.54.802 9.82 1.187 1.55-8.089 3.16-16.219 4.93-24.469-3.49-.179-7.18-.433-10.87-.687Zm17.31.937c-1.81 8.394-3.54 16.712-5.12 24.938 4.18.499 8.38.99 12.56 1.5.27-8.636.41-17.271.37-25.906-.32-.054-1-.244-1.25-.25-2.12-.054-4.39-.197-6.56-.282Zm-22.12 29.219c-2.45 16.132-4.72 31.819-6.66 47.188-7.5 59.373-11.17 113.436-10.72 165.781.27 30.939 3.39 62.088 9.59 102.938 1.67 10.972 7.75 48.278 8.29 51.593 15.14 93.39 34.48 185.306 58.71 279.594 13.32 51.795 24.75 91.185 37.88 128.685 15.63 44.64 33.15 84.71 54.12 122.6 24.26 43.79 53.53 86.74 87.69 129.56-48.79-101.53-83.87-180.35-115.25-261.22-50.42-129.933-84.76-250.725-103.53-371.625-8.44-54.347-13.36-88.995-17.41-125.25-5.17-46.282-7.85-87.612-7.78-126.437.08-44.345 5.18-91.76 14.6-142.282-3.18-.374-6.35-.758-9.53-1.125Zm15.84 1.875c-9.41 50.308-14.58 97.538-14.66 141.563-.07 38.568 2.58 79.654 7.72 125.719 4.04 36.144 8.95 70.703 17.38 124.968 18.7 120.421 52.92 240.806 103.19 370.344 33.61 86.63 71.97 171.8 126.59 284.5a1310.95 1310.95 0 0 0 39.31 44.91c11.61 12.66 23.63 25.25 36.03 37.9 2.73-.06 7.14-.16 9.88-.22 6.18-.13 11.21-.16 22.53-.21 11.61-.07 16.74-.12 23.19-.26.69-.01 1.19-.07 1.87-.09-2.9-3.3-4.32-5.04-7.5-8.65-.57-.66-2.87-3.27-3.44-3.91-26.42-30.02-39.36-45.01-54.12-63.13-19.31-23.7-35.59-45.64-50.03-67.87-115.83-178.31-193.84-376.377-233.66-590.408-6.79-36.522-11.94-75.135-16.12-118.75-3.24-33.727-5.43-64.224-8.94-119.343-.55-8.637-1.14-13.75-3.78-34.781-1.64-13.029-2.5-20.862-3.19-29.282-2.38-29.238-.59-51.144 7.34-69.187.35-.788.98-1.368 1.72-1.657.75-.289 1.59-.315 2.38.032 1.57.692 2.32 2.549 1.62 4.125-7.42 16.888-9.17 37.889-6.87 66.187.67 8.305 1.56 16.087 3.19 29.032 2.66 21.186 3.25 26.304 3.81 35.124 3.5 55.057 5.71 85.514 8.93 119.157 4.17 43.443 9.28 81.862 16.04 118.187 39.67 213.236 117.37 410.534 232.75 588.154 14.31 22.03 30.48 43.81 49.65 67.35 14.7 18.04 27.59 33.01 53.97 62.97.57.64 2.86 3.22 3.44 3.87 4.56 5.18 6.9 7.99 10.75 12.41 1.06-.05 2.06-.11 3.09-.16-12.24-13.54-25.06-26.7-35.03-41.97-6.18-9.46-8.58-17.55-14.28-27.06-7.41-12.37-17.3-23.16-25.44-35.03-11.92-17.42-24.38-34.57-36.15-52.1-33.85-50.39-63.26-103.93-90.5-158.06-33.18-65.92-64.88-134.89-88.63-204.811-20.74-61.065-35.76-123.728-49.34-186.688-17.39-80.601-31.36-162.42-36.91-244.812-3.96-58.844 3.45-117.665 5.69-176.469-4.48-.548-8.98-1.059-13.47-1.594ZM451.438 373.25c-8.087 60.073-11.514 117.614-10.032 175.125 2.939 114.023 19.091 226.439 47.532 335.344 6.8 20.389 13.916 40.643 22.093 60.593 7.316 17.847 13.291 36.257 22.063 53.5 6.72 13.208 13.96 26.138 20.656 39.378 12.371 24.45 23.348 49.67 35.719 74.12 21.375 42.24 44.542 83.66 66.625 125.47 4.692 8.89 8.034 18.47 13.031 27.19 7.539 13.15 15.906 25.82 23.219 39.12 14.331 26.08 30.744 51.01 45.094 77.13 13.115 23.87 25.979 47.46 40.124 70.31 7.242 8.86 14.574 17.66 22.032 26.38a3.123 3.123 0 0 1-.344 4.4c-.304.26-.705.22-1.062.35 4.644 6.51 9.423 12.96 14.468 19.28 6.956 8.71 13.566 17.95 20.344 27.09a598.07 598.07 0 0 1 19.312-1.31c5.486-.29 9.604-.49 19.844-.91 20.564-.84 29.866-1.34 40.813-2.4 4.364-.43 12.86-1.41 19-2.07-14.506-15.4-27.805-30.8-40.531-46.25-30.232.4-59.946.66-88.876.63-5.351-.01-7.852-3.61-5.374-8 1.344-2.38 4.254-5.3 8.468-8.72 7.159-5.81 17.777-12.71 24.219-15.84 8.679-4.22 17.016-7.16 28.813-10.35-8.476-11.87-16.539-23.83-24.063-35.93-30.305-48.76-55.891-100.8-77.469-156.26-16.861-29.35-33.891-58.67-48.594-89.18-10.126-21.02-18.086-43.15-27.031-64.66-11.973-28.79-25.486-57.5-39.406-85.4-28.414-56.959-56.86-113.679-79.094-173.411-54.515-146.458-100.796-298.308-111.593-454.719ZM440.75 644.438c1.76 23.59 4.302 47.532 7.719 70.531.351 2.36.954 4.669 1.469 7-3.707-25.724-6.833-51.56-9.188-77.531Zm538.594 765.152c-20.56 4.21-39.391 8.8-76.688 18.69-2.569.68-3.129.85-4.281 1.16-4.974 1.32-18.708 4.55-19.437 4.72-3.71.86-6.67 1.62-9.813 2.4a769.843 769.843 0 0 0 25.063 32.28c38.879-.53 79.244-1.4 121.622-2.62-10.66-15.89-21.636-33-36.466-56.63Zm592.996 5.82c7.28 14.91 13.7 28.3 21.6 44.31.76 1.54.14 3.42-1.41 4.19-1.54.76-3.42.1-4.19-1.44-2.48-5.03-4.43-9.15-6.78-13.94-.54.78-1.29 1.37-2.31 1.41-18.1.6-36.65 1.34-54.31 2 .39.38.76.8 1.15 1.18 7.87 7.61 16.29 14.62 24.16 22.22.9.87 1.96 1.66 3.06 2.44 20.45-.48 35.89-.92 62.78-1.5 6.18-.13 8.25-.19 12.32-.28-11.03-11.3-21.85-22.56-32.22-33.88-8.18-8.92-16.1-17.81-23.85-26.71Zm-709.778 22.81c-12.768 3.35-21.14 6.24-29.968 10.53-5.996 2.91-16.23 9.57-23.032 15.09-2.844 2.31-4.704 4.17-5.906 5.66 26.969.03 54.631-.21 82.719-.56-8.244-10.21-16.314-20.42-23.813-30.72Zm656.498 13.94c-50.89 1.91-105.34 4.17-198.62 8.34-129.42 5.78-186.93 8.21-258.85 10.59-11.73.39-22.81.69-34.21 1.03 8.75 12.86 17.07 24.71 25.24 35.54 10.86-1.24 26.28-3.1 36.41-4.16 53.77-5.66 78.96-8.11 109.56-10.38 46.75-3.46 89.42-5.68 165.16-8.96 3.83-.17 33.66-1.45 41.31-1.78 41.98-1.85 85.37-3.1 141.16-4.44-5.76-4.67-11.29-9.62-16.56-14.82-3.62-3.56-7.12-7.26-10.6-10.96Zm-499.12 20.18c-42.035 1.23-82.123 2.11-120.69 2.66 12.68 15.18 26.175 30.31 40.594 45.47 31.623-3.47 70.726-7.98 70.906-8 17.4-2.07 23.71-2.72 34.81-4-8.42-11.29-16.9-23.29-25.62-36.13Zm690.59 8.13c-1.02.06-2.11.1-3.15.15 1.46 1.7 3.01 3.49 4.4 5.1 1.01-.06 2.07-.14 3.06-.19-1.42-1.7-2.85-3.39-4.31-5.06Zm-11.06.53c-2.43.08-4.38.29-6.94.34-6.49.14-11.64.19-23.28.25-11.28.06-16.3.12-22.44.25-1.08.03-2.85.08-3.9.1 2.58 2.61 5.4 5.26 8.03 7.87 9.52-.66 18.41-1.22 28.4-1.93.48-.04 14.41-1.08 19.63-1.44 1.79-.13 3.21-.17 4.94-.28-1.54-1.77-2.82-3.31-4.44-5.16Zm-65.19 1.12c-5.2.12-9.01.19-18.06.38-23.9.51-37.08.91-55.78 1.34.68.99 1.19 2.07 1.31 3.32.31 3.15-4.23-.28-7.91-3.16-59.91 1.42-104.78 2.67-148.5 4.59-7.65.34-37.51 1.65-41.34 1.82-75.68 3.28-118.3 5.48-164.97 8.93-30.52 2.26-55.64 4.72-109.34 10.38-8.98.94-18.03 2.05-32.5 3.72 2.81 3.65 5.74 7.28 8.62 10.87 3.67-.18 8.91-.51 12.57-.69 82.4-3.86 148.37-7.68 296.56-16.84 25.08-1.55 36.14-2.24 50.03-3.09 50.41-3.1 89.04-5.38 126.65-7.5 28.65-1.62 59.11-3.63 91.07-5.81-2.74-2.75-5.71-5.52-8.41-8.26Zm85.53 9.35c-.9.04-1.95.14-2.87.19.46.54 1.1 1.24 1.56 1.78 1.04-.13 1.81-.22 2.62-.32-.43-.55-.87-1.1-1.31-1.65Zm-10.75.62c-3.25.2-6.14.32-9.65.57-5.2.36-19.13 1.4-19.63 1.43-8.06.58-15.16 1.03-22.9 1.57l3.84 3.78c17.12-1.55 33.84-3.24 50.22-5.16-.6-.69-1.27-1.48-1.88-2.19Zm-60.44 4.13c-34.08 2.35-66.31 4.47-96.62 6.19-37.6 2.12-151.61 9.04-176.69 10.59-148.22 9.16-214.21 13.01-296.65 16.88-2.36.11-5.74.32-8.1.43 1.19 1.45 2.27 2.92 3.47 4.38 2.58 3.1 5.03 5.82 7.53 8.72 7.45-.73 12.24-1.27 20.16-2.03 9.36-.9 16.31-1.57 33.94-3.26 61.85-5.9 90.05-8.67 124.65-12.31 63.08-6.63 113.72-9.84 227.31-15.43 17.93-.89 25.68-1.26 35.54-1.76 51.52-2.6 92.13-5.27 129.4-8.5-1.31-1.29-2.63-2.61-3.94-3.9Zm76.35 2.69c-.69.08-.84.13-1.56.21 1.26 1.48 3.16 3.64 4.4 5.1-.6-1.14-1.19-2.33-1.69-3.41-.31-.67-.78-1.26-1.15-1.9Zm-9.06 1.09c-16.18 1.93-32.57 3.63-49.35 5.19 5.05 4.9 9.77 9.73 14.97 14.69 8.54-.64 17.08-1.28 25.59-1.66 3.89-.18 7.82.71 11.66.12 3.51-.54 8.55-.17 10.66-2.72-3.58-4.25-9.46-10.88-13.53-15.62Zm-57.47 5.91c-38.77 3.44-80.9 6.2-134.94 8.93-9.86.5-17.63.87-35.56 1.75-113.48 5.6-164.04 8.8-226.97 15.41-34.63 3.64-62.85 6.41-124.72 12.31-17.62 1.69-24.58 2.35-33.94 3.25-6.2.6-9.87 1.02-15.78 1.6 5.6 6.32 11.11 12.39 16.63 18.22 10.54-.26 21.09-.47 31.62-.91 28.21-1.19 56.55-5.75 84.44-9.56 32.75-4.49 65.83-6.3 98.56-10.94 27.11-3.85 54.88-5.39 82.16-6.75 14.18-.71 28.49.48 42.68-.31 25.32-1.42 50.65-2.12 75.97-3.53 41.01-2.3 82.18-8.07 123.07-12.07 10.46-1.02 21-2.01 31.53-2.87-5.11-4.89-9.79-9.69-14.75-14.53Zm-608.47 8.34c-16.71 1.94-38.85 4.46-38.97 4.47-29.465 3.51-48.594 5.68-65.594 7.53 1.424 1.48 2.902 2.96 4.344 4.44 1.824-.11 8.907-.52 9.625-.57 41.575-2.45 69.675-3.92 98.655-5.37-2.68-3.41-5.38-6.97-8.06-10.5Zm-112.47 12.84c-7.875.84-15.964 1.73-23.938 2.5-11.103 1.09-20.475 1.62-41.156 2.47-10.217.42-14.295.59-19.75.88-5.528.28-10.141.73-15.062 1.12.72.95 1.46 1.88 2.187 2.82 6.716-.28 13.37-.54 20.594-.94 16.481-.93 59.142-3.45 81.094-4.75-1.319-1.37-2.665-2.73-3.969-4.1Zm125.38 3.63c-30.17 1.48-59.69 3.05-103.161 5.62-.31.02-3.629.22-4.157.25 5.887 5.95 11.93 11.9 18.094 17.88 28.714-3.19 63.344-6.66 100.314-10.28-1.59-1.87-3.1-3.59-4.72-5.53-2.14-2.58-4.25-5.3-6.37-7.94Zm-115.692 6.37c-19.006 1.13-68.858 4.07-86.438 5.07-5.662.32-10.765.46-16.281.72 4.436 5.46 9.017 10.77 13.937 15.68 13.287 13.26 33.764 17.41 51.969 15.63 8.162-.8 15.922-5 24.125-4.94 4.072.03 8.07 1.35 11.906 2.72 3.815 1.36 7.572 7.75 10.875 5.41 3.171-2.25-.773-7.91-2.406-11.44-.469-1.01-1.092-1.94-1.687-2.88-21.975 2.55-43.2 5.13-64.157 7.91a3.12 3.12 0 0 1-3.5-2.69c-.226-1.7.981-3.27 2.688-3.5 25.087-3.33 50.368-6.37 77.312-9.4-6.25-6.11-12.382-12.2-18.343-18.29Zm131.722 12.85c-36.73 3.59-70.99 6.99-99.472 10.12 1.84 1.76 3.572 3.52 5.437 5.28 20.215 3.23 40.475 6.24 61.095 5.94 9.87-.14 19.61-2.35 29.47-2.9 6.45-.37 12.91-.5 19.37-.69a734.79 734.79 0 0 1-15.9-17.75ZM971.25 1561c-4.894.55-9.618 1.11-14.375 1.66 5.622.84 11.557.43 17.25 1.15-.982-.94-1.899-1.87-2.875-2.81Z"/><path d="M478.594 239.094c-1.062.106-2.127.295-3.188.5-2.665 4.13-5.002 10.445-7.094 18.625.676-.453 1.3-.961 2.157-1.219 1.641-.495 3.393-.656 6-.656.387 0 .709.025 1.375.031 1.783.017 2.512 0 3.25-.063 5.508-.467 10.876-.733 16.656-1-1.588-3.842-1.278-8.733-3.844-11.906-3.532-.365-6.561-.81-9.375-1.718-1.394-.451-3.032-1.469-4.406-2.594-.511.01-1.021-.051-1.531 0Zm-19.344 1.125c-3.424-.169-6.694.039-9.375 1.937-6.124 4.337-9.147 12.512-10.594 19.875-5.853 29.803-10.764 60.067-11.062 90.438-.44 44.878 3.773 89.667 7.281 134.437 1.678-50.14 6.844-100.935 15.625-154.062.12-.729.25-1.533.375-2.406.501-3.492 3.948-34.884 5.438-45.407 2.836-20.028 6.239-34.828 10.843-44.406-2.782.043-5.695-.267-8.531-.406Zm40.875 21.187c-6.617.275-12.401.608-18.5 1.125-1.008.086-1.849.082-3.844.063-.645-.007-.951 0-1.312 0-1.429 0-2.153.124-2.969.25.644.109.977.266 1.906.344.566.047.595.051 2.156.156 1.245.083 1.941.131 2.626.218 5.121.653 10.157.842 18.062.844h3.5a22.643 22.643 0 0 1-1.625-3Zm-33.594 4.969c-1.217 5.867-2.399 12.197-3.437 19.531-1.472 10.392-4.917 41.811-5.438 45.438-.131.915-.247 1.756-.375 2.531-11.967 72.405-17.312 140.425-15.969 208.344 4.46 28.864 10.937 57.639 16.469 86.062 4.923 25.292 6.8 55.886 15.375 80.781 5.464 15.862 12.776 31.11 17.125 47.313 9.386 34.968 16.096 71.091 29.281 104.969 20.997 53.947 47.273 105.131 74.282 156.186 16.106 30.45 29.036 62.65 45.187 92.97 9.028 16.95 19.092 33.35 29.031 49.78 17.281 28.57 38.077 54.5 56.938 81.94 28.911 42.05 57.645 83.93 90.812 122.75-48.012-84.92-83.184-179.13-107.75-284.31-22.688-97.154-36.122-201.695-43.781-325.035-3.699-7.157-7.31-14.361-10.5-21.75-12.265-28.413-24.354-56.984-33.656-86.5-8.063-25.584-12.491-52.182-18.281-78.375-4.634-20.961-9.146-41.976-13-63.094-4.472-24.501-7.538-49.247-12-73.75-3.264-17.922-6.194-35.94-11.156-53.468-4.679-16.527-13.379-31.669-19.813-47.594-2.835-7.016-4.981-14.396-8.781-20.938-4.249.207-9.362.353-13.344.594-.528.032-1.099-.053-1.625-.062-2.092.242-4.664.524-4.719.531-4.608.604-6.816.857-9.531 1-.448.023-3.024.377-3.25.406-1.908.243-3.157.311-4.25.187-2.89-.327-5.008-2.777-3.187-5.843 1.833-3.09 4.836-4.54 8.656-4.688 2.5-.097 4.532.214 9.344 1.188.108.022.11.009.218.031 3.212.65 4.993.909 6.532.969.849-.088 2.153-.28 3-.344 2.364-.178 3.778-.17 5.906-.313-.872-.792-1.695-1.613-2.375-2.562-5.708-7.968-6.052-19.177-12.313-26.719-1.535-1.849-3.74-2.895-6-3.906-1.025-.003-2.621.036-3.656.031-1.413-.007-7.379.001-8.25 0-8.148-.002-13.399-.212-18.844-.906-.521-.066-1.128-.112-2.25-.188-.534-.035-1.893-.126-2.25-.156-2.525-.211-4.335-.531-5.844-1.156a6.536 6.536 0 0 1-2.531-1.875Zm204.907 503.094c7.779 116.836 20.965 216.771 42.687 309.781 27.533 117.9 68.327 221.87 125.781 314.31 1.141 1.84 2.4 3.64 3.563 5.47 6.055 8.28 12.671 17.03 21.156 20.25 4.173 1.59 8.886 1.47 13.344 1.22 4.653-.26 10.213.36 13.687-2.75 3.794-3.39 6.302-9.31 5.375-14.31-3.125-16.9-12.014-32.22-17-48.66-6.353-20.95-10.271-42.6-17-63.44-6.873-21.28-15.43-41.99-23.75-62.75-13.893-34.66-31.24-68.01-42.875-103.5-9.061-27.63-11.006-57.19-19-85.15-15.858-55.486-43.708-106.848-64.468-160.69-10.209-26.477-16.806-54.278-27.5-80.562-4.073-10.01-8.994-19.628-14-29.219ZM759.438 247.344 740 268.406c9.213 47.002 9.519 95.348 16.375 142.75 3.031 20.959 7.627 41.823 14.437 61.875 2.135 6.285 7.593 10.916 11.969 15.907 3.357 3.827 7.256 7.13 11.125 10.437 3.202 2.736 6.042 8.91 10.063 7.656 4.59-1.431 5.368-8.186 6.562-12.843 1.664-6.487 1.599-13.309 1.875-20 .834-20.198-.057-40.44-1.125-60.626-2.225-42.094 4.144-83.4-1.812-125.281-1.313-9.229-2.358-18.64-5.531-27.406-1.434-3.96-2.052-9.155-5.688-11.281-3.873-2.265-9.001.508-13.469.094-8.446-.784-16.861-2.405-25.343-2.344ZM1104.52 268.581c-4.13 25.174-10.03 50.121-12.38 75.523-2.77 29.838-3.25 59.885-2.96 89.849.22 22.606 2.69 45.137 4.49 67.672 1.52 19.028 2.51 38.145 5.47 57.003 2.41 15.342 6.68 30.341 10.59 45.371 2.74 10.523 9.64 29.045 13.87 38.95 2.05 4.787 2.86 10.64 6.77 14.079 5.73 5.037 13.03 10.977 20.59 9.981 5.55-.731 6.5-9.126 9.37-13.928 2.97-4.983 6.02-9.985 8.15-15.386 13.84-35.153 9.24-68.65 9.77-105.358a464.932 464.932 0 0 1 2.75-44.134c1.23-11.129 4.72-21.944 5.76-33.094.87-9.377-.49-18.845-.07-28.253 1-22.367 4.11-36.12 6.78-58.557 2.07-17.466 2.63-34.664 3.49-52.136.8-16.453.57-30.694-1.01-47.173-.39-4.097 1.22-9.211-1.55-12.25-2.73-2.984-7.84-2.297-11.88-2.447-14.54-.538-29.84 2.819-44.63 2.587"/></g><g vectornator:layerName="Capa 2" fill="none" stroke="#416292" stroke-width="16.051" clip-path="url(#a)" opacity=".5"><path vectornator:blendMode="multiply" d="M1948.07-1259.1c1.6-.54 3.2-1.07 4.79-1.6M436.503 239.953c2.082 11.429-1.583 23.181-2.488 34.762-2.889 36.943-6.062 74.1-7.204 111.099-1.246 40.373-.046 81.049.563 121.447.117 7.758 1.343 15.531 1.303 23.289-.096 18.829 2.332 37.578 2.436 56.41.033 5.866-.357 11.763.266 17.596 5.128 48.06 11.451 95.921 18.34 143.694 4.633 32.128 13.619 62.707 21.082 94.183 7.596 32.034 16.906 64.859 28.242 95.818 17.551 47.939 41.663 93.139 62.673 139.539 6.68 14.75 12.685 29.88 19.856 44.41 11.45 23.2 25.735 44.77 37.805 67.61 24.561 46.48 48.677 92.53 76.905 136.95 17.434 27.43 31.14 57.23 49.629 84.08 11.567 16.79 24.19 32.94 36.418 49.23 13.51 18 25.208 37.08 39.353 54.59 8.749 10.83 17.213 23.16 26.665 33.37 5.513 5.95 11.993 10.95 16.913 17.5" opacity="1"/><path vectornator:blendMode="multiply" d="M440.684 359.059c17.952-1.121 35.861 2.84 53.802 4.112 66.986 4.752 133.704 13.318 200.943 14.019 29.682.31 59.425-1.923 89.024-3.483 24.791-1.306 49.171.372 73.881-.047 15.055-.255 30.088-1.708 45.145-1.573 26.418.236 52.866-.35 79.282.03 24.079.348 48.029 3.433 72.069 4.217 57.61 1.879 115.18 5.281 172.75 7.893 17.5.793 35.71 1.928 53.21 1.243 8.57-.335 17.55-1.335 26.07-1.212 7.84.112 15.91 1.759 23.8 2.249M432.589 468.73c.844.224 1.66.635 2.532.672 16.351.689 32.715 1.031 49.073 1.502 9.423.271 18.851.356 28.271.725 23.741.93 47.293 4.141 70.934 5.948 18.962 1.45 38.013 1.319 57.007 2.252 55.517 2.726 111.048 2.252 166.625 2.879 34.939.394 69.89 2.731 104.813 3.418 19.594.385 39.246-1.642 58.816-2.012 39.99-.756 80.16-1.546 120.16-3.352 29.88-1.349 59.88-3.737 89.7-6.015 9.72-.743 19.54-2.6 29.28-3.074 9.52-.464 19.11.311 28.6-.541 21.34-1.911 42.34-4.064 63.76-2.735M432.634 575.817c.999.491 1.885 1.44 2.997 1.473 25.884.781 51.791.4 77.68.961 62.335 1.352 124.408 6.448 186.756 6.188 78.736-.328 157.2-5.206 235.985-3.112 52.695 1.401 106.068 6.853 158.818 4.197 43.68-2.199 87.32-7.1 130.92-10.665 17.33-1.417 34.81-1.008 52.15-2.425 14.32-1.172 28.95-4.714 42.82-5.58M451.957 679.21c.801-.465 1.478-1.355 2.403-1.395 20.436-.877 40.904-.684 61.348-1.34 20.569-.66 41.113-2.016 61.684-2.606 39.723-1.139 79.675-.409 119.362-2.887 59.037-3.686 118.195-3.362 177.247-6.501 63.028-3.349 125.95-8.279 188.929-12.211 27.28-1.703 54.47-5.061 81.76-6.765 26.54-1.657 52.88-2.814 79.36-5.37 17.18-1.658 34.16-6.808 51.43-7.362 12.71-.408 25.23.364 37.8.545 5.96.086 11.84-1.067 17.81-.696M461.15 779.915c12.592 3.342 26.045.903 39.072.881 17.427-.029 34.854-.666 52.278-.358 32.889.58 65.724 3.063 98.611 3.805 32.256.727 64.403-.531 96.621-1.467 53.786-1.562 107.73-3.646 161.381-8.001 33.034-2.681 65.955-7.562 98.977-10.33 50.57-4.24 101.58-5.336 152.31-7.02 12.02-.398 24.08.388 36.07-.592 29.11-2.38 58.07-8.196 86.78-12.889 24.11-3.941 49.01-4.72 73.49-6.249M485.099 870.982c7.462 3.667 16.639 1.037 24.937.519 18.89-1.18 37.823-1.713 56.748-1.883 54.05-.485 108.137.285 162.234-.998 17.27-.409 34.537-1.226 51.812-1.159 23.758.091 47.167 1.747 71.012.547 50.735-2.555 101.608-3.854 152.308-7.02 77.54-4.841 155.25-9.826 232.94-12.053 30.38-.871 60.84-.132 91.22-1.545 11.84-.551 25.46-1.7 37.08-4.39 3.14-.727 6.19-2.047 9.41-2.248M515.225 977.474c2.015.863 3.858 2.442 6.046 2.587 32.254 2.147 64.579 3.105 96.884 4.263 26.361.945 52.72 2.526 79.096 2.373 43.146-.251 85.716-6.502 128.306-12.335 74.517-10.204 149.718-19.498 224.833-23.959 38.64-2.295 77.43.733 116.05-.411 19.63-.582 39.01-4.493 58.54-6.423 9.76-.965 19.59-.935 29.36-1.744 14.31-1.184 28.37-4.595 42.65-6.069 17.48-1.802 35.33-1.731 52.85-3.138 11.92-.957 13.19-2.647 25.04-5.022 12.2-2.449 24.69-2.773 36.78-5.72M570.717 1078.47c-.345.81-.689 1.61-1.034 2.42-1.035 2.42-5.627 6.51-3.105 7.25 7.9 2.34 16.462-.64 24.695-.87 21.582-.61 42.686 2.13 64.243.3 16.421-1.39 32.821-3.01 49.216-4.69 20.503-2.09 40.961-4.62 61.476-6.59 22.256-2.14 44.517-4.31 66.83-5.74 48.18-3.08 96.607-1.02 144.717-3.88 9.608-.57 19.07-2.71 28.665-3.47 47.09-3.74 94.22-7.66 141.26-12.52 36.07-3.72 71.69-9.38 107.58-14.05 15.88-2.06 32.22-2.91 48.01-5.2 19.68-2.86 39.02-8.17 58.88-10.57 17.1-2.07 35.35-1.75 52.15-4.87.96-.18 1.33-1.53 2.24-1.9 1.85-.74 10.92-1.23 13.47-1.39M626.733 1188.27c.058.98-.806 2.94.175 2.94 28.63-.13 57.225-2.06 85.827-3.33 42.226-1.88 85.197-3.59 127.446-6.98 60.266-4.84 120.28-10.68 180.629-14.27 78.95-4.68 158.05-2.36 236.76-11.7 27.97-3.32 56.6-4.58 84.27-9.72 21.45-3.98 43.38-8.68 64.58-13.85 13.56-3.31 27.97-9.14 41.79-10.73 10.92-1.26 22.39-.74 33.5-1.4M702.619 1315.16c31.277-1.86 61.47-4.56 92.559-9.03 34.733-5 68.951-12.46 103.954-15.6 49.214-4.43 98.565-7.26 147.818-11.14 62.48-4.92 124.51-14.17 186.68-21.69 19.27-2.34 38.81-2.33 58.02-5.22 8.06-1.21 15.77-4.3 23.83-5.54 42.66-6.54 85.95-10.16 127.78-21.14 10.55-2.77 21.15-8.47 31.08-12.45 7.9-3.16 25.19-7.63 33.15-7.27 7.9.36 16.32 2.36 22.8-3.12M741.7 1407.7c2.361.06 4.748.54 7.081.17 42.661-6.63 84.964-15.62 127.783-21.14 33.454-4.31 67.196-6.05 100.849-8.35 54.757-3.73 109.667-4.63 164.397-9.76 20.96-1.97 41.63-6.39 62.51-9.02 35.45-4.46 71.2-5.91 106.55-11.63 12.73-2.05 25.04-6.39 37.82-8.13 16.91-2.32 34.08-2.68 50.94-5.39 12.38-1.98 24.38-5.86 36.61-8.65 18.07-4.13 36.61-6.84 54.73-10.91 11.53-2.6 23.2-6.15 34.88-7.97 7.22-1.12 14.74.26 21.76-.7 11.88-1.63 23.71-3.49 34.88-7.96M820.156 1498.5c-.345.8-1.901 2.28-1.035 2.42 12.73 2.04 25.623 3.29 38.513 3.6 20.204.48 40.414-.68 60.616-1.24 75.113-2.11 150.01-7.6 225.02-11.01 38.35-1.74 76.99-.38 115.36-2.14 19.39-.89 38.63-4.06 58.02-5.21 33.34-1.98 66.49-2.85 99.81-5.93 50.77-4.69 101.55-13.42 151.96-20.81 33.67-4.94 67.53-15.41 101.02-15.43 4.9 0 9.22-2.31 13.99-2.6M337.829 278.471c-1.574-1.379.048-6.452-1.985-5.957-8.248 2.006-15.806 6.703-22.506 11.915-5.442 4.232-9.415 10.151-13.239 15.886-3.465 5.197-5.395 15.059-6.619 21.182-7.835 39.173 25.541 60.023 60.898 55.603 9.961-1.245 17.639-14.003 21.182-22.506 4.11-9.865 12.677-25.701 9.267-37.068-.966-3.219-2.823-6.109-3.972-9.267-1.788-4.917-1.723-9.071-5.295-13.239-3.536-4.125-9.832-10.4-14.563-13.239-5.873-3.524-15.129 3.732-23.168-3.31ZM328.562 543.908c-1.218-1.218-1.739-4.68-3.309-3.971-6.597 2.979-12.909 7.418-17.211 13.239-3.568 4.826-4.267 11.297-5.295 17.21-2.923 16.806 2.354 56.486 18.534 66.194 8.495 5.097 16.894 6.619 26.477 6.619 4.283 0 6.503.428 10.591-1.324 4.176-1.789 8.281-3.893 11.915-6.619 6.354-4.765 7.547-16.947 9.267-23.83 5.025-20.097 6.682-45.627-11.914-59.574-3.607-2.705-23.043-5.296-27.802-5.296-2.25 0-4.505 2.093-6.619 1.324-1.912-.695-3.195-2.533-4.634-3.972ZM367.617 800.078c0 3.066-5.036-5.602-7.944-4.633-8.607 2.869-15.993 12.712-18.534 21.182-3.484 11.613-7.232 26.438-3.972 38.392 1.354 4.965 5.296 8.826 7.944 13.239 3.406 5.677 7.179 12.475 11.915 17.21 7.441 7.442 36.89 6.846 46.335 2.648 8.405-3.735 10.906-14.728 13.239-22.506 4.454-14.846 10.978-32.451 2.648-46.335-2.314-3.856-2.773-7.514-6.62-10.591-9.401-7.522-21.16-10.591-33.097-10.591-3.29 0-11.914-1.822-11.914 1.985ZM442.416 1045c-1.251-.31-2.025-2.04-3.31-1.99-4.497.18-10.139-.62-13.239 2.65-6.117 6.44-8.215 15.75-11.915 23.83-1.163 2.53-2.02 5.22-2.648 7.94-3.661 15.87-3.087 43.43 13.239 52.96 10.523 6.13 22.469 8.34 34.421 9.26 3.344.26 9.884.84 13.239 0 22.399-5.6 33.389-33.26 31.773-54.28-.695-9.02-8.105-15.9-13.239-22.5-1.578-2.03-2.905-5.19-5.296-6.62-4.246-2.55-9.28-8.51-14.562-9.27-9.33-1.33-19.241.25-28.463-1.98ZM539.125 1269.62c-.61-.3-1.203-1.18-1.83-.91-5.392 2.29-12.339 3.34-15.508 8.26-3.192 4.97-1.323 11.77-1.17 17.67.222 8.53 5.002 17.89 7.683 25.86 7.101 21.11 19.543 45.86 45.792 42.51 3.247-.42 6.721.02 9.741-1.24 16.64-6.96 19.992-21.75 23.042-37.22.65-3.29 3.48-7.81 3.319-11.27-.855-18.53-11.17-37.29-26.318-48.05-9.775-6.94-26.404-.87-35.62 2.84-2.999 1.21-6.183 3.01-9.131 1.55ZM651.36 1446.24c-.614 1.23.056 3.4-1.208 3.96-4.153 1.83-10.036-.59-13.391 2.47-4.041 3.68-4.907 9.9-6.049 15.24-2.725 12.75 2.356 28.66 8.33 39.87 12.267 23.02 44.87 29.16 67.971 23.87 9.564-2.18 18.358-6.11 22.187-15.59 3.427-8.47 2.118-17.8.233-26.49-1.228-5.65-1.956-11.6-4.614-16.74-7.467-14.44-24.445-26.48-40.274-29.12-5.529-.92-11.174-.93-16.752-1.48-4.286-.42-8.611-2.81-12.795-1.79-2.216.54-2.624 3.75-3.638 5.8Z" opacity="1"/></g><g vectornator:layerName="Capa 5" fill="#e6aaa2"><path d="M1027.69 712.203c-1.81-16.871 18.22-32.852 44.73-35.695 26.51-2.843 49.12 7.966 51.2 24.806 2.09 16.839-18.14 33.446-44.65 36.289-26.51 2.843-49.47-8.529-51.28-25.4ZM513.571 329.879c-.413-8.254-1.126-16.918 1.528-24.745.725-2.141 2.662-3.655 3.971-5.499 1.181-1.663 3.671-5.697 5.499-7.027 6.397-4.652 13.794-.714 16.803 5.805 7.686 16.655 3.493 40.646-.306 57.739-1.014 4.563-1.742 12.705-6.415 15.275-3.023 1.663-7.327 1.999-10.693 2.139-3.673.153-8.041.408-11.609-.611-5.227-1.493-9.874-4.736-14.358-7.638-8.654-5.599-13.98-8.649-20.774-16.802-3.444-4.132-6.896-9.255-7.943-14.664-1.921-9.921 4.896-16.511 14.358-18.025 9.991-1.598 20.734 2.457 29.023 7.638M1530.07 1452.2c-1.84.62-2.5-3.6-1.99-5.48 1.75-6.45 5.08-12.4 8.39-18.2 1.26-2.19 3.35-3.8 5.19-5.53 4.01-3.77 10.69-8.6 16.55-8.75 2.65-.06 7.47 2.13 9.66 3.42 9.16 5.37 9.19 16.67 6.64 25.73-4.1 14.52-15.37 23.77-25.12 34.43-5.06 5.53-10.22 11.7-17.21 14.93-10.56 4.88-23.28-1.52-30.52-9.45-5.24-5.72-8.93-12.05-12.95-18.63-6.99-11.43-12.19-24.55-6.08-37.69 1.15-2.47 4.33-6.77 6.06-8.72 4.32-4.83 11.62-9.45 18.56-8.24 3.96.7 7.81 4.67 10.32 7.46 6.49 7.21 13.57 18.12 13.66 28.18.02 2.22.94 5.84-1.16 6.54ZM1587.4 1396.56c-.19 5.07-.36 10.16-.3 15.24M661.934 748.961c-1.809-16.871 18.214-32.852 44.724-35.695 26.51-2.843 49.121 7.966 51.207 24.805 2.087 16.84-18.145 33.447-44.655 36.29-26.51 2.843-49.467-8.529-51.276-25.4Z"/><path stroke="#000" stroke-width="16.051" d="M938.113 652.591c-5.55-3.708-6.405-19.282-6.237-26.545.082-3.549-.544-7.515.599-10.994 6.466-19.684 24.354-29.713 44.627-25.798 17.358 3.353 21.328 27.776 26.558 41.434.67 1.755 2.28 11.487 3.16 12.227.29.249.4-.693.42-1.079.05-.864-.15-1.723-.22-2.585-.21-2.391-.67-5.425-1.2-7.71-1.19-5.091-3.91-9.85-5.969-14.586-4.06-9.361-8.5-20.49-17.915-26.041-5.491-3.238-13.059-2.981-19.066-3.537-4.413-.409-9.411 1.301-13.261 3.247-13.447 6.797-16.439 15.86-17.107 30.678-.314 6.961.362 17.331 3.121 23.692.25.576 4.512 8.947 2.49 7.597ZM780.984 678.152c-5.55-3.707-6.404-19.282-6.236-26.545.082-3.549-.545-7.514.598-10.993 6.466-19.685 24.354-29.714 44.627-25.798 17.359 3.352 21.328 27.776 26.56 41.434.672 1.755 2.274 11.486 3.157 12.227.296.249.405-.693.426-1.079.047-.864-.151-1.724-.227-2.586-.21-2.391-.664-5.424-1.197-7.71-1.189-5.091-3.915-9.849-5.969-14.585-4.061-9.362-8.501-20.491-17.915-26.041-5.491-3.238-13.06-2.981-19.067-3.538-4.412-.408-9.411 1.302-13.261 3.248-13.446 6.797-16.439 15.86-17.106 30.677-.314 6.962.361 17.332 3.12 23.693.25.576 4.512 8.947 2.49 7.596ZM756.117 520.072c-.058.603-1.649.743-1.809.159-1.382-5.015-2.123-10.225-2.395-15.42-.827-15.751 5.366-34.51 17.387-45.29 5.984-5.366 26.362-13.424 34.387-11.874 4.223.816 11.465 9.475 14.15 12.826 1.027 1.281 2.087 2.509 2.948 3.909.405.659.931 2.697 1.216 1.977 1.239-3.138-4.719-9.226-6.686-10.875-6.617-5.55-12.498-3.632-20.191-4.481-21.39-2.36-36.071 20.347-40.391 38.452-2.444 10.242 2.346 20.673 1.384 30.617ZM897.178 453.251c-.02.273-.235 1.068-.191.798.556-3.353.61-6.839 1.723-10.05.727-2.093 2.328-3.78 3.683-5.533 4.971-6.434 25.965-12.636 33.824-12.346 15.29.563 27.939 12.271 35.022 25.061 2.491 4.498 4.83 8.985 5.924 14.069.069.323 1.014 4.6.925 4.608-.033.002-4.4-10.653-4.617-11.057-2.544-4.742-5.944-8.688-9.452-12.717-10.271-11.799-26.932-17.475-42.188-17.66-2.317-.028-4.977-.611-7.284.118-10.501 3.32-16.612 14.394-17.369 24.709ZM872.212 742.497c-.479-2.024-.336 7.064-.314 8.083.125 5.955.747 13.846 3.64 19.162 9.757 17.929 17.579 32.496 39.582 33.803 3.928.233 8.187-1.046 11.998-1.947 4.892-1.156 9.817-1.337 14.129-4.229 12.663-8.496 14.235-28.367 15.452-41.919.737-8.197-1.176-15.037-1.908-23.131-.157-1.738.12-3.18-1.096-4.635M871.016 737.44c14.472-3.421 29.406-8.648 44.247-10.46 5.522-.674 11.555-.507 16.933-1.778 3.147-.744 16.18-2.308 17.277-4.084"/></g><g vectornator:layerName="Capa 4" fill="none" stroke="#fcbd42" stroke-width="16.051" opacity=".5"><path d="M1109.52 299.081c-.35-1.425-.71-2.851-1.06-4.276" opacity="1"/><path d="M1104.18 285.186c-1.42-.712-3.98-3.703-4.27-2.137-2.59 13.692-4.79 27.837-3.21 41.683 1.68 14.782 7.26 28.952 12.82 42.751 4.12 10.207 10.25 19.498 16.04 28.858 26.18 42.358 61.99 73.429 109.01 90.847 8.68 3.212 17.58 6.09 26.72 7.482 17.4 2.647 29.6-3.007 45.96-5.344M928.899 316.181c27.871 0 55.644-3.536 83.361-6.412 11.13-1.155 22.08-3.669 33.14-5.344 3.44-.521 2.09.147 1.07 3.206M966.307 400.616c21.791-7.264 42.003-18.597 63.063-27.789 5.27-2.303 10.44-5.017 16.03-6.412.77-.194.71 1.425 1.07 2.137M1025.09 492.532c.36-.712.49-1.593 1.07-2.138 16.56-15.521 33.47-30.662 50.23-45.958 3.54-3.23 7.13-6.412 10.69-9.619M1082.81 589.792c1.42-1.069 3.39-1.656 4.27-3.206 11.31-19.965 21.14-40.738 32.06-60.921.85-1.567 2.14-2.85 3.21-4.276M1180.07 640.025c5.87-17.633 8.27-36.249 11.75-54.508 1.54-8.08 2.14-16.357 2.14-24.582" opacity="1"/><path d="M1137.32 370.165c0-1.809-.84-3.821 0-5.425 16.44-31.587 34.24-62.45 51.54-93.579.79-1.425 1.8-2.713 2.71-4.069M1183.43 287.435c.45-1.808-.31-4.591 1.36-5.425 1.28-.639 1.24 2.644 1.35 4.069.35 4.507 0 9.041 0 13.562 0 3.165.29 6.342 0 9.494-1.07 11.783-2.56 23.526-4.07 35.262-1.96 15.35-3.77 30.723-5.42 46.111-.54 4.998-4.12 15.961 1.36 20.343 5.06 4.055 8.01-7.852 8.13-8.137 2.83-6.279 5.13-12.795 8.14-18.987 12.97-26.65 30.17-49.064 44.76-74.592 2.31-4.041 4.6-8.093 6.78-12.206 1.89-3.574 3.61-7.233 5.42-10.85.91-1.808.8-4.786 2.71-5.425 1.36-.452 1.22 2.646 1.36 4.069.32 3.149 0 6.329 0 9.493v13.563c0 17.184-.19 34.391-1.36 51.536-1.6 23.54-7.21 49.586-2.71 73.236.72 3.794 1.56 7.917 4.07 10.85 3 3.497 6.61-6.446 10.85-12.206 3.81-5.173 7.66-10.375 12.21-14.919 12.6-12.599 28.39-18.895 40.68-31.193" opacity="1"/></g><g vectornator:layerName="Capa 6" fill="none" stroke="#6b0f4d" stroke-width="16.051" opacity=".5"><path vectornator:blendMode="multiply" d="M808.587 1136.96c13.82 0 27.357-3.97 41.077-5.64 10.713-1.3 21.605-1.26 32.217-3.22 11.321-2.1 21.863-6.47 33.023-8.86 4.758-1.02 8.17.59 12.887 0 4.148-.52 6.597-3.87 10.47-4.84 1.584-.39 3.372-.07 4.833-.8M880.27 1133.73c6.466 16.17 10.805 33.12 15.303 49.94 3.475 13 8.958 31.48 3.222 45.11-7.883 18.72-31.336 22.29-45.91 9.66-1.584-1.37-3.089-2.96-4.027-4.83-3.982-7.97-2.63-15.96-.805-24.16M940.677 1193.34c.537-.27 1.205-1.25 1.611-.81 9.293 10.09 17.72 20.94 26.58 31.41M977.727 1184.48c-4.089 12.27-1.675 25.82-3.221 38.66-1.654 13.72-5.638 27.25-5.638 41.07M1007.53 1106.35c0-.54-.09-2.14 0-1.61 1.16 7.24 2.76 14.43 3.22 21.75 1.37 21.97.32 44.03.81 66.04.09 4.3.43 8.6.8 12.89.17 1.89.62 3.75.81 5.64.08.8.8 2.41 0 2.41-.85 0-.54-1.61-.81-2.41M1016.39 1100.71c17.97 26.97 34.21 53.95 46.71 83.77 1.49 3.54 3.18 7 4.84 10.47 1.43 3 5.97 10.65 4.83 12.08-.84 1.05-2.69 0-4.03 0M1020.42 1176.42c-.81 0-1.97.67-2.42 0-.47-.7-.03-2.25.8-2.41 7.95-1.54 16.11-1.61 24.17-2.42" opacity=".5"/><path d="M1054.91 909.812c-51.82-.864-103.404 33.036-128.722 77.344-4.432 7.755-7.248 13.744-8.876 22.534-.73 3.94.011 16.92-1.593 20.93-.2.5-1.104.14-1.625 0-2.089-.52-5.05-2.75-6.438-4-7.195-6.47-13.094-14.28-20.125-20.96-16.748-15.915-35.34-26.625-58.812-28.972-65.892-6.59-122.111 34.282-140.157 97.432-11.483 40.2-4.873 75.88 8.876 114.38 4.829 13.52 9 27.38 15.312 40.28 11.174 22.83 25.84 44.67 42.688 63.63 11.74 13.2 23.635 28.69 37.843 39.47 4.036 3.06 8.701 5.19 12.875 8.06 12.51 8.6 23.883 18.91 37.063 26.56 14.556 8.45 29.926 16.07 45.093 23.38 7.032 3.38 14.16 6.65 20.969 10.46 6.953 3.9 13.055 9.2 20.125 12.88 3.318 1.72 7.038 2.54 10.469 4.03 12.819 5.55 24.054 10.14 37.844 12.87 3.331.66 6.331 2.71 9.687 3.22 1.327.21 1.206-2.61 2.406-3.22 1.225-.61 2.704-.44 4.032-.78 3.579-.89 8.776-.79 12.066-2.43 5.11-2.56 7.43-6.37 12.09-9.66 2.26-1.59 5.14-2.25 7.25-4.03 9.3-7.84 17.54-19.2 25.78-28.19 7.2-7.86 14.04-16.03 20.94-24.15 7.16-8.45 14.09-17.09 20.94-25.79 14.48-18.37 30.34-36.75 41.87-57.18 25.77-45.68 45.05-95.75 50.75-148.19 1.07-9.88.81-27.16.81-37.06 0-16.9-.72-31.79-4.03-48.32-1.87-9.34-2.33-18.99-4.84-28.18-3.15-11.56-9.02-24.974-16.09-34.66-2.7-3.691-6.16-6.795-8.88-10.469-4.18-5.641-9.8-16.35-14.5-21.75-12.25-14.085-29.91-26.667-47.5-33-11.67-4.199-23.64-6.269-35.59-6.469Z" opacity=".5"/></g></svg>