<svg xmlns="http://www.w3.org/2000/svg" xmlns:vectornator="http://vectornator.io" xmlns:xlink="http://www.w3.org/1999/xlink" xml:space="preserve" stroke-linecap="round" stroke-linejoin="round" stroke-miterlimit="10" clip-rule="evenodd" viewBox="0 0 1800 1800"><g vectornator:layerName="Capa 1" opacity=".15"><use xlink:href="#a" opacity="1"/></g><g vectornator:layerName="Capa 2" fill="#b3d6df"><path d="M501.107 800.509c1.417-9.952 18.039-9.143 27.698-11.929 16.971-4.894 34.611-7.08 51.831-11.007 21.911-4.996 43.25-12.046 65.297-16.427 5.228-1.039 10.447-.987 15.662-1.855 1.814-.302 3.583-1.684 5.373-1.259 3.489.831 5.937 6.596 7.524 8.893 4.362 6.317 9.303 12.335 13.858 18.518 4.081 5.539 8.127 12.46 12.533 17.694 3.471 4.123 8.188 7.113 11.503 11.362 7.832 10.04 11.779 22.948 18.937 33.424 1.392 2.038 3.053 3.885 4.734 5.692 1.154 1.241 2.197 4.104 3.75 3.429 1.424-.618-2.808-3.598-1.487-4.412 1.322-.814 2.265 2.132 3.271 3.315.982 1.155 1.796 2.444 2.675 3.68 1.149 1.614 2.168 3.324 3.408 4.87 4.321 5.385 8.808 9.355 11.435 15.911.662 1.652 2.178 3.257 1.853 5.007-.968 5.214-7.799 6.338-11.408 7.433-7.529 2.284-15.5 3.857-23.161 5.651-10.101 2.367-20.15 5.102-30.454 6.453-14.433 1.894-28.962 1.873-43.418 3.369-9.062.938-18.037 2.655-27.139 3.183-11.083.642-22.061.514-33.153.737-2.035.041-5.532 2.023-6.105.07-.593-2.022 3.093-2.958 4.984-3.888 7.148-3.514 16.941-5.714 24.692-7.824 13.136-3.576 26.03-8.099 39.256-11.461 13.819-3.513 27.789-5.739 41.428-9.931 9.619-2.956 19.062-6.052 28.876-8.35 2.149-.504 4.289-1.048 6.447-1.51 1.585-.339 6.265-1.539 4.779-.893-5.939 2.581-12.541 3.245-18.863 4.645-10.731 2.376-21.398 3.977-32.26 5.516-25.939 3.675-51.399 9.855-77.05 14.646-10.051 1.878-19.641 4.556-29.791 1.537-1.428-.424-3.281-.341-4.208-1.508-1.144-1.44-.62-3.648-1.258-5.373-2.241-6.056-7.283-12.895-10.864-18.312-4.55-6.883-10.337-13.545-15.551-19.935-1.125-1.379-2.323-2.708-3.636-3.909-1.196-1.093-4.063-1.341-3.865-2.949.191-1.54 2.912-1.09 4.413-1.487 3.557-.939 7.196-1.55 10.746-2.517 12.099-3.293 22.929-9.21 34.316-14.159 2.177-.945 4.479-1.575 6.676-2.47 1.738-.708 4.687-.508 5.121-2.333.392-1.648-3.229 1.054-4.892 1.373-3.424.656-6.964.504-10.403 1.076-14.367 2.391-29.994 6.057-43.692 10.914-1.429.507-2.755 1.286-4.046 2.081-1.292.795-2.232 3.124-3.681 2.676-1.893-.586-2.369-3.182-3.408-4.87-1.955-3.176-3.715-6.607-6.449-9.144-7.945-7.372-24.38-12.581-22.834-23.443ZM283.67 1042.52c19.612-9.21 39.928-16.83 59.872-25.29 18.06-7.66 34.298-17.664 52.601-24.387 2.64-.97 13.594-5.549 17.01-4.728 7.122 1.713 12.094 8.27 18.203 12.315 2.261 1.5 4.465 3.11 6.901 4.3 2.325 1.14 6.833.1 7.302 2.64.489 2.65-3.593 4.08-5.772 5.67-3.918 2.86-8.212 5.17-12.409 7.6-18.652 10.8-39.17 17.74-57.972 28.38a328 328 0 0 1-22.149 11.43c-2.587 1.22-10.65 2.73-7.871 3.4 3.005.72 5.791-2.17 8.705-3.2 3.513-1.24 7.063-2.38 10.573-3.63 21.502-7.65 43.062-15.22 64.04-24.28 8.018-3.46 20.617-14.7 30.052-11.29 3.337 1.2 9.133 11.16 10.933 13.21 3.976 4.53 8.597 8.46 12.8 12.78 4.455 4.58 9.779 8.23 14.668 12.34 2.063 1.74 5.058 3.15 5.666 5.77.585 2.53-.713 5.58-2.637 7.31-2.594 2.33-6.547 2.42-9.74 3.83-7.802 3.44-15.599 6.96-22.982 11.23-5.643 3.26-10.052 8.3-15.279 12.19-15.776 11.75-32.167 24.68-48.971 34.97-6.903 4.22-14.306 7.58-21.315 11.62-8.679 5.02-17.169 9.81-25.652 15-2.591 1.59-5.481 2.65-8.072 4.23-2.247 1.38-8.741 3.42-6.405 4.63 2.955 1.55 6.449-1.74 9.539-2.99 7.531-3.05 14.614-7.1 21.948-10.6 31.602-15.05 61.373-34.83 90.599-54.05 6.961-4.58 14.277-8.37 20.882-13.5 2.258-1.75 4.222-7.04 6.605-5.46 3.098 2.05 1.809 7.29 1.763 11-.036 2.86-1.205 5.6-2.005 8.34-3.715 12.75-8.391 24.94-12.555 37.54-3.257 9.86-5.626 19.73-8.051 29.81-1.002 4.17-3.013 14-5.243 18.14-6.574 12.23-19.7 9.82-30.854 14.63-15.028 6.49-29.919 16.19-43.865 24.73-2.247 1.37-3.974 3.61-6.405 4.63-7.495 3.14-16.089.55-23.71-.41M830.35 560.686c2.157-4.548 6.609-8.273 11.352-9.957 11.671-4.143 24.272-4.964 36.484-7.024 16.958-2.861 34.092-4.234 51.056-7.144 37.967-6.513 75.818-13.756 113.948-19.092 34.17-4.781 68.72-8.272 102.79-13.844 20.7-3.386 41.46-6.481 62.25-9.478 2.83-.408 5.7-.605 8.51-1.19 2.43-.507 5.82-4.175 7.15-2.076 1.88 2.959-.92 6.973-1.93 10.328-1.19 3.947-3.32 7.558-4.61 11.471-2.36 7.126-3.27 14.652-4.76 22.009-.5 2.505.32 6.237-1.95 7.414-3.32 1.724-7.47-.656-11.22-.581-5.38.109-10.75.636-16.13 1.029-9.54.698-18.85 3.066-28.44 3.596-12.82.708-25.76-.108-38.56-.133-5.25-.01-18.1 1.128-23.08 1.31-13.74.501-27.35-1.262-41.03-.785-5.55.194-11.04 1.3-16.58 1.705-12.18.891-24.57-.17-36.765.077-25.616.519-51.097 3.019-76.631 4.887-22.94 1.679-46.113 2.312-68.774 6.168a100.79 100.79 0 0 1-7.39.957c-2.682.256-8.616-2.123-8.066.515.566 2.715 5.533.403 8.3.604 5.441.397 10.912.213 16.366.091 19.257-.433 38.815-2.005 58.05-1.597 16.134.343 32.143-1.793 48.189-1.291 15.975.499 32.161 2.182 48.211 1.623 41.44-1.445 82.71-7.643 124.12-9.536 16.64-.76 33.72-.742 50.19-2.877 2.47-.319 4.7-1.757 7.16-2.076 2.52-.327 6.54-2.139 7.63.162 1.59 3.396-1.57 7.34-2.38 11.004-1.54 6.991-3.42 13.905-4.99 20.89-4.9 21.806-10.18 43.445-15.6 65.141-1.45 5.786-.56 12.881-4.57 17.3-5.64 6.222-22.47.128-29.37-.881-16.83-2.459-34.17-3.843-51.16-4.513-34.94-1.377-69.88-7.947-104.35-13.269-20.194-3.118-41.617-1.519-61.479-6.446-16.081-3.989-29.994-12.891-44.113-21.16-9.762-5.718-16.807-11.538-25.485-18.623-6.041-4.932-13.077-8.547-19.167-13.518-3.987-3.256-9.943-5.031-11.961-9.766-1.502-3.523-2.855-7.964-1.215-11.424ZM1309.45 824.76c8.34 11.293 15.22 23.596 22.84 35.392 16.79 26.023 35.24 50.802 55.13 74.488 6.78 8.07 13.26 16.412 20.04 24.495.85 1.01 4.51 5.534 5.53 5.952 4.26 1.74 13.83-.778 18.07-2.458 5.2-2.059 9.53-4.906 14.47-7.379 8.46-4.243 18.08-7.206 27.07-10.025 11.43-3.581 22.8-6.903 34.3-10.26 1.52-.444 2.92-1.291 4.46-1.627 1.32-.288 3.13.768 4.05-.223 1.9-2.044-.52-6-2.47-7.991-6.54-6.669-14.54-11.639-21.16-18.256-8.73-8.729-16.58-18.23-24.98-27.229-4-4.274-8.8-7.754-12.78-12.055-14.44-15.626-29.72-30.461-44.07-46.168-7.11-7.792-14.4-15.449-21.59-23.189-1.84-1.982-3.48-4.143-5.22-6.214-.87-1.036-3.82-2.514-2.61-3.107 1.42-.693 2.87 1.393 4.11 2.374 1.93 1.518 3.57 3.361 5.32 5.071 7.71 7.508 15.79 14.574 23.41 22.195 10.43 10.431 22.49 19.077 32.84 29.64 15.08 15.391 28.44 32.389 43.97 47.312 6.65 6.392 12.67 13.432 19.3 19.822.88.85 1.82 1.64 2.65 2.535.93.988 1.3 3.421 2.61 3.107 1.22-.29-1.02-2.292-1.72-3.318-.92-1.336-2.09-2.486-3.13-3.728-3.38-4.025-6.67-8.205-10.18-12.117-4.7-5.247-10.75-8.88-15.48-14.019-5.95-6.465-11.33-13.452-17.27-19.933-11.42-12.453-22.56-25.214-33.86-37.792-6.13-6.82-10.98-14.886-17.43-21.387-3.16-3.182-6.77-5.912-9.85-9.209-7.22-7.731-15.42-22.096-27.76-18.543"/><path d="M599.657 915.345c-4.482 1.601-8.798 4.744-11.202 8.851-8.608 14.709-14.125 31.021-21.206 46.523-3.232 7.076-6.274 14.242-9.733 21.209-13.335 26.862-30.957 51.352-46.259 77.072-9.957 16.74-17.306 35.98-25.366 53.7-6.904 15.18-15.097 29.16-20.852 44.81-.927 2.53-2.473 4.8-3.303 7.36-.811 2.49-3.357 5.77-1.59 7.71 2.167 2.38 6.417.59 9.598 1.09 12.387 1.94 26.026 2.42 38.039 6.06 12.644 3.83 24.998 7.56 38.189 9.66 9.812 1.56 19.846 1.84 29.652 3.44 15.167 2.47 30.145 7.81 45.571 8.51 16.235.72 33.051-2.25 49.228-.56 32.279 3.36 62.682 16.82 94.895 20.46 24.374 2.76 49.966 3.34 74.243 3.71 9.389.14 18.401 3.32 27.584 4.8 14.849 2.4 30.385 4.5 45.422 4.9 6.98.19 16.071-.51 23.152.32 6.955.81 13.736 3.11 20.733 3.38 3.321.13 6.629-.73 9.952-.63 16.996.53 34.356 3.53 51.446 1.69 12.73-1.38 25.73-3.06 38.44-4.57 7-.84 13.63-3.75 20.61-4.68 6.24-.84 12.62.08 18.87-.57 14.82-1.56 29.57-6.12 43.97-9.69 6.62-1.64 13.8-.75 20.26-2.96 3.71-1.27 6.69-4.11 10.15-5.94 5.84-3.1 18-8.88 24.59-11 20.42-6.56 41.52-11.6 61.86-18.5 19.53-6.61 38.65-15.93 57.6-23.83 8.82-3.68 18.32-5.6 26.99-9.61 7.35-3.41 14.14-8.16 21.84-10.68 11.48-3.75 21.84-8.63 33.01-12.83 5.74-2.16 11.94-2.78 17.87-4.35 3.15-.84 6.63-4.15 9.44-2.52 2.33 1.35-4.42 3.33-7.05 3.9-6.09 1.33-17.39-1.8-22.62-2.88-14.28-2.94-28.55-5.89-42.83-8.83-42.18-8.7-77.53-27.49-118.86-39.67-31.41-9.25-69.98-9.43-101-19.98-5.58-1.89-10.93-4.48-16.6-6.1-40.21-11.49-82.27-17.6-122.984-27.15-24.441-5.74-48.358-13.67-72.776-19.48-26.992-6.43-54.635-13.514-82.047-17.821-18.027-2.832-36.032-2.9-53.81-7.529-8.589-2.236-21.463-7.211-30.127-9.786-22.119-6.575-44.678-11.873-66.604-19.098-14.698-4.843-28.452-10.595-43.478-14.326-11.927-2.962-23.363-7.891-35.266-10.847-4.527-1.124-9.274-1.367-13.704-2.827-2.891-.953-5.561-2.564-8.035-4.336-2.236-1.602-7-8.246-5.969-5.696 2.945 7.275 12.191 10.525 19.646 12.982 15.686 5.169 32.146 9.181 48.114 13.497 13.556 3.664 27.386 5.791 40.935 9.337 7.801 2.042 14.934 5.379 22.419 8.197 5.463 2.057 11.302 2.927 16.953 4.39 14.724 3.813 28.905 9.722 43.655 13.47 31.449 7.992 63.51 12.546 94.365 23.043 10.124 3.44 20.114 5.88 30.304 8.93 15.499 4.62 29.936 12.83 45.517 17.42 25.835 7.62 53.096 12.2 79.652 16.43 11.97 1.91 24.12 5.26 36.15 6.57 9.34 1.02 18.74.98 28.12 2.23 9.83 1.3 19.48 3.74 29.3 5.15 11.6 1.67 23.53 1.24 35.14 2.78 7.51 1 14.79 3.36 22.27 4.6 28.99 4.78 57 7.45 84.61 18.34 9.88 3.9 19.69 8.18 29.78 11.5 9.82 3.24 19.84 5.21 29.27 9.61 5.96 2.79 12.13 5.13 17.96 8.17 8.24 4.31 13.96 10.06 23.25 12.84 6.42 1.91 13.2 2.39 19.7 4.06 10.65 2.73 15.91 4.54 27.08 2.91 3.37-.5 7.21.29 10.13-1.48 3.83-2.34 6.58-11.37 7.64-15.39 3.77-14.44 2.95-29.08 4.55-43.71 1.36-12.49-1.57-23.65-1.5-36.03.05-8.74 1.9-17.1-.01-25.9-1.18-5.37-5-10.02-5.74-15.47-.75-5.48.55-11.549-1.96-16.477-2.63-5.155-7.04-9.19-10.55-13.785-16.46-21.5-28.17-42.886-46.01-63.077-12.3-13.913-22.12-28.447-30.12-45.048-2.78-5.764-9.66-8.56-11.98-14.524-1.94-5.01-5.01-9.515-7.8-14.112-2.99-4.935-5.52-10.301-9.52-14.464-3.88-4.045-9.39-6.397-12.97-10.712-7.26-8.754-13.48-18.953-20.07-28.25-7.47-10.552-16.08-19.959-24.17-29.989-11.13-13.811-21.45-27.797-33.54-40.852-10.54-11.382-18.44-26.726-32.03-35.182-14.91-9.275-33.98-5.44-50.39-6.822-17.82-1.5-35.1-6.013-52.77-8.208-7.33-.91-14.77-.339-22.12-.991-10.97-.974-20.73-2.195-31.72-2.079-12.04.128-24.345-.685-36.353-1.248-6.433-.302-12.758-2.303-19.197-2.174-5.807.116-11.53 1.54-17.333 1.782-3.321.138-9.952.626-9.952.626s-7.223-11.228-9.886-10.009c-2.964 1.357-2.995 14.139-4.905 16.78-1.84 2.544-3.25 5.391-5.193 7.858-5.563 7.064-12.019 13.366-17.618 20.475-20.598 26.156-33.84 55.295-49.563 84.429-5.763 10.678-13.164 20.593-19.738 30.753-9.112 14.081-17.744 32.492-30.451 43.724-6.184 5.466-16.005 6.354-23.383 9.463-8.172 3.444-14.788 8.995-23.056 12.21-5.595 2.175-11.502 3.449-17.184 5.384-14.663 4.995-28.514 11.708-43.49 16.032-9.417 2.718-18.994 4.433-28.345 7.546-5.219 1.738-10.495 3.395-15.471 5.738-5.946 2.8-10.71 6.882-17.034 8.988-10.324 3.437-23.186 4.237-33.321 7.86Z"/></g><clipPath id="b"><path d="M0 0h1800v1800H0z"/></clipPath><g vectornator:layerName="Capa 3" fill="#82a3ac" clip-path="url(#b)"><path d="M830.325 555.817c-18.191-5.763-28.398 25.582-41.314 39.629-14.266 15.516-29.209 31.63-41.329 48.94-8.236 11.762-16.104 23.857-25.453 34.797-5.337 6.245-11.634 11.677-16.929 17.958-4.265 5.06-7.527 10.962-11.747 16.06-6.046 7.303-12.257 14.17-17.98 21.772-4.538 6.029-9.764 11.64-14.021 17.873-1.108 1.621-3.321 3.092-3.053 5.037.332 2.401 3.098 3.732 4.533 5.685 1.497 2.038 2.853 4.175 4.259 6.276 7.997 11.947 16.018 23.501 22.604 36.288 3.304 6.415 7.635 12.249 11.596 18.28 4.303 6.551 7.038 14.428 11.957 20.598 3.29 4.128 8.004 6.955 11.382 11.012 1.693 2.034 2.205 4.909 3.985 6.866 4.34 4.771 11.644 3.505 17.299 4.436 6.527 1.075 11.634 4.804 18.393 2.076 4.914-1.982 7.479-5.837 11.372-9.065 7.63-6.326 14.935-12.345 20.93-20.404 9.13-12.274 18.827-24.205 27.727-36.609 4.877-6.798 9.12-14.583 13.029-21.917 7.583-14.229 17.019-27.542 25.554-41.201 3.945-6.313 6.568-13.182 10.482-19.514 11.105-17.969 23.058-36.13 35.976-52.857 4.052-5.246 12.928-16.278 13.577-23.097.205-2.158-.046-4.631-1.352-6.362-2.616-3.464-7.979-3.56-11.527-6.061-7.6-5.357-14.805-10.855-22.867-15.62-1.69-.999-3.086-2.832-5.037-3.052-7.856-.887-10.999 6.137-15.689 10.647-1.539 1.48-2.885 5.114-4.823 4.216-1.937-.898-.398-4.329.102-6.404 1.068-4.426 4.05-8.166 5.745-12.391.731-1.822 2.467-3.713 1.872-5.584-.685-2.157-3.266-3.151-5.079-4.506-5.253-3.924-11.195-7.009-16.334-11.157-12.931-10.438-2.146-27.673-17.84-32.645ZM496.685 796.876c-4.919 15.574-10.206 31.074-16.307 46.23-4.721 11.728-11.365 22.636-17.238 33.76-5.136 9.726-8.664 20.387-13.032 30.462-8.792 20.284-18.503 40.315-25.467 61.356-2.663 8.043-4.004 16.423-6.074 24.624M507.365 812.79c-1.79-1.169-4.31 1.491-5.53 3.246-2.441 3.509-3.337 7.871-4.954 11.828-2.672 6.539-5.401 13.057-7.914 19.659-4.552 11.956-10.135 24.113-15.887 35.648-6.277 12.588-13.876 24.759-19.232 37.758-5.984 14.522-10.693 29.168-15.607 44.015-2.904 8.772-11.319 19.247-10.118 28.948 1.367 11.028 11.486 16.298 18.435 23.358 5.709 5.79 12.01 12.52 17.188 18.82 7.453 9.07 12.853 16.04 21.675 23.89 1.864 1.66 2.856 4.37 5.08 5.5 2.246 1.15 5.116 1.71 7.505.91 2.102-.7 3.002-3.26 4.476-4.92 5.867-6.59 11.153-13.66 16.119-20.96 16.375-24.07 28.158-50.729 44.348-74.873 6.463-9.639 12.468-19.366 18.485-29.227 2.976-4.877 6.853-9.721 7.541-15.394 1.329-10.966-4.22-22.201-12.072-29.625-4.105-3.882-9.267-6.702-12.806-11.107-6.955-8.655-11.061-18.546-18.493-27.026-5.237-5.976-10.887-10.518-16.699-15.746-5.027-4.522-4.424-6.063-9.136-11.165-4.152-4.496-7.281-10.189-12.404-13.537ZM1513.36 937.004c-.74-2.219 5.58-4.439 3.77-5.92-2.51-2.057-6.49.496-9.69 1.077-4.71.856-9.37 1.984-13.99 3.228-9.92 2.671-19.91 5.401-30.13 6.458-13.72 1.419-33.11.534-44.13 10.762-9.48 8.808-7.53 19.48-7.53 31.21 0 16.077.7 32.371 0 48.431-1.18 27.21-10.66 50.54-6.46 78.56.89 5.89 1.61 16.27 7.54 20.45 3.7 2.62 8.61 2.87 12.91 4.31 9.61 3.2 19.15 6.89 27.98 11.83 15.36 8.6 27.05 18.47 45.2 19.38 3.23.16 6.92 1.66 9.69 0 3.33-2 4.88-6.14 6.46-9.69 2.81-6.33 2.4-17.59 3.23-23.68.93-6.83 2.15-13.63 3.22-20.45 6.12-38.74 3.23-79.13 3.23-118.379 0-12.69 5-32.239-1.07-44.125-2.57-5.015-8.45-8.109-10.23-13.452ZM1407.36 1128.57c2.16-2.4-6.66-1.67-9.69-.54-10.22 3.83-19.25 10.29-29.06 15.07-14.66 7.15-29.42 14.44-44.12 21.52-13.96 6.72-28.71 10.53-43.05 16.15-7.77 3.04-14.76 7.91-22.6 10.76-8.02 2.91-16.6 3.97-24.76 6.46-12.53 3.81-24.94 7.58-37.66 10.76-13.17 3.29-26.69 5.33-39.82 8.61-8.15 2.03-15.83 5.62-23.68 8.61-8.7 3.31-17.99 4.82-26.9 7.53-10.17 3.09-19.84 7.9-30.14 10.76-10.01 2.79-20.14 4.54-30.13 7.54-3.59 1.07-10.76-.52-10.76 3.23 0 3.65 7.1 2 10.76 2.15 5.39.21 10.76-.65 16.14-1.08 15.04-1.2 30.14-3.51 45.2-4.3 3.58-.19 7.25.7 10.76 0 7.46-1.49 14.32-5.13 21.53-7.54 8.4-2.8 16.31-6.98 24.75-9.68 23.19-7.42 47.06-11.73 69.95-20.45 16.5-6.29 32.48-14.51 49.51-19.37 14.31-4.09 28.56-6.97 41.97-13.99 10.68-5.6 20.7-12.46 31.21-18.3 18.52-10.28 36.29-18.05 50.59-33.9Z"/><path d="M1432.35 1131.43c-17.12 4.2-25.71 4.92-40.66 14.06-9.68 5.91-20.49 14.99-30.51 20.26-16.26 8.56-29.94 20.05-48.8 27.28-18.85 7.22-18.81-1.1-26.63 1.62-11.41 3.97-23.01 12.76-34.84 15.87-21.31 5.61-41.76 14.82-63.09 19.9-7.75 1.85-13.94 9.17-21.83 10.25-26.88 3.66-54.07 6.55-80.72 10.76-7.12 1.12-14.45.74-21.52 2.15-3.34.67-35.17-2.76-35.17.64 0 3.23 31.94 2.59 35.17 2.59h13.99c28.39 0 56.67 2.18 85.02 0 10.02-.77 20.09-.62 30.13-1.08 8.74-.39 13.59-2.1 22.6-3.23 12.03-1.5 24.55-2.18 36.59-3.23 29.93-2.6 59.6-2.57 89.33-7.53 14.87-2.48 29.35-5.5 44.12-8.61 10.75-2.26 21.25-3.63 31.21-8.61 13.64-6.82 25.31-16.63 38.75-23.67 10.59-5.55 24.44-9.97 33.36-18.3 2.62-2.45 3.92-6.07 6.46-8.61 2.53-2.54 7.86-2.95 8.61-6.46.71-3.31-3.25-5.98-5.38-8.61-2.56-3.15-5.21-6.4-8.61-8.61-6.38-4.13-14.38-4.93-21.53-7.53-12.29-4.47-23.3-14.43-36.05-11.3Z"/><path d="M1044.13 1249.63c-26.05 5.75-54.013 4.74-80.66 3.66-39.325-1.58-77.426-5.47-116.331-10.97-6.359-.9-12.846-.37-19.246-.9-15.968-1.32-31.843-4.42-47.75-6.12-26.137-2.79-52.705-3.63-78.63-8.1-30.44-5.26-60.493-12.15-90.748-18.69-30.703-6.64-61.964-11.48-92.617-18.41-7.423-1.67-14.529-4.6-21.966-6.21-9.641-2.09-20.1-4.2-29.804-1.2-7.43 2.3-13.243 8.2-20.202 11.67-9.566 4.78-19.942 7.75-29.683 12.16-9.436 4.27-18.427 9.48-27.389 14.67-6.584 3.82-12.817 8.21-19.126 12.47-2.812 1.89-8.975 1.77-8.771 5.15.216 3.59 5.983 4.16 9.399 5.26 10.851 3.51 24.929 4.14 36.259 5.95 41.103 6.59 82.281 13.7 123.862 16.52 27.599 1.88 54.766.92 82.305.86 12.145-.02 24.337 1.08 36.483 1.15 8.986.05 17.552-1.24 26.434-2.11 11.152-1.1 22.231-.4 33.397-.3 7.616.06 15.232-.96 22.84-.61 22.464 1.04 45.628 3.35 68.154 2.06 5.03-.29 9.912-2 14.943-2.27 8.943-.49 17.908.97 26.859.69 11.993-.38 23.928-2.16 35.915-2.6 8.332-.3 16.656.86 24.992.98 26.428.38 53.146-3.92 79.443-5.39 27.288-1.53 54.038-2.48 81.168-6.61M1378.98 783.855c-21.72-48.352-50.17-93.567-73.65-141.055-10.22-20.644-23.21-39.076-32.07-60.51-4.28-10.34-8.03-20.824-13.63-30.569-4.13-7.186-9.2-14.201-12.89-21.607-4.71-9.434-8.87-18.81-13.9-28.234-3.33-6.231-6.5-12.545-9.66-18.867-1.14-2.286-1.07-8.059-3.34-6.895-3.43 1.754-3.18 7.047-4.2 10.758-1.36 4.925-1.88 10.046-2.93 15.047-2.99 14.355-8.06 26.73-12.37 40.584-2.07 6.619-1.29 10.209-2.54 16.867-1.99 10.529-6.41 20.635-9.49 30.859-4.77 15.868-8.52 32.149-11.5 48.377-.79 4.322-3.79 12.01-2.54 16.867 1.74 6.757 7.11 12.012 10.96 17.835 5.37 8.136 10.71 16.178 16.78 23.831 13.15 16.591 26.79 32.471 40.55 48.472 9.44 10.974 17.27 23.007 26.86 33.872 4.04 4.571 7.21 9.871 11.37 14.331 4.92 5.285 10.49 10.051 14.73 15.902 1.16 1.605 6.99 11.587 9.16 12.893 5.9 3.551 9.36.973 14.42-1.885 2.42-1.369 6.61-1.76 7.03-4.514.65-4.332-2.71-8.349-4.49-12.353-3.44-7.736-6.17-11.74-10.31-18.351-1.33-2.126-2.76-4.193-4-6.379-1.39-2.461-6.62-6.966-3.86-7.546 3.3-.693 5.21 4.31 7.5 6.783 4.45 4.801 11.37 14.866 14.85 20.058 1.39 2.084 1.94 4.933 3.99 6.379 2.27 1.597 5.37 2.856 8.04 2.112 5.88-1.637 9.03-8.367 14.33-11.363 5.12-2.886 11.3-3.347 16.65-5.771 3.57-1.617 11.76-2.353 10.15-5.928ZM1414.78 2453.08c-1.08 11.94 1.77 24.92-3.25 35.8-74.48 161.2-166.1 314.47-234.32 478.41-10.84 26.04-3.99 56.69 0 84.61 1.58 11.06 10.84 19.53 16.27 29.29"/></g><g vectornator:layerName="Capa 4" fill="#e6aaa2"><path vectornator:layerName="(oval)" d="M851.547 970.415c0-17.899 19.556-32.409 43.68-32.409s43.68 14.51 43.68 32.409c0 17.9-19.556 32.405-43.68 32.405s-43.68-14.505-43.68-32.405Z"/><path d="M1142.06 969.454c0-17.899 19.56-32.409 43.68-32.409 24.13 0 43.68 14.51 43.68 32.409s-19.55 32.406-43.68 32.406c-24.12 0-43.68-14.507-43.68-32.406Z"/></g><g vectornator:layerName="Capa 6" fill="none" stroke="#000" stroke-width="16.051"><path d="M1018.28 964.596c0 7.067-2.29 14.928 3.44 20.652 6.51 6.513 16.74 9.426 25.92 7.897 2.4-.4 4.68-2.244 6.68-3.442 1.25-.753 3.16-1.654 4.05-2.835 4.64-6.191 5.87-13.052 5.87-20.652M939.701 858.871c11.801 0 22.972 5.956 33.18 11.06 4.821 2.41 9.956 4.056 14.747 6.452 2.094 1.047 3.708 2.465 5.991 3.226 4.235 1.411 8.321 2.96 12.441 4.608.64.257 3.55.561 3.23 1.844-.7 2.774-10.93 7.592-13.367 9.216-8.81 5.874-17.844 11.005-27.65 15.208-7.785 3.336-17.024 4.595-24.424 8.295M1075.05 883.714c-1.42.968 3.19-1.301 4.67-2.165.92-.535 1.81-1.105 2.74-1.616 4.07-2.232 8.69-3.608 12.68-5.834 9.67-5.388 19.46-11.232 28.59-17.459.79-.54 9.6-5.806 9.62-5.801.49.092-.72.685-1.1 1.01-.27.234-.5.523-.76.772-1.06 1.02-2.28 1.56-3.49 2.387-3.66 2.494-7.89 3.843-11.56 6.35-4.46 3.043-9.25 5.371-14.01 8.022-5.43 3.027-10.47 6.697-15.86 9.804-1.6.917-11.2 6.073-11.49 7.583-.58 3.073 11.17 8.102 13.78 9.304 2.53 1.162 4.87 3.201 7.45 4.147 2.79 1.024 5.92 1.441 8.66 2.548 4.98 2.014 9.74 5.119 14.87 6.767 2.89.928 5.31 2.629 8.14 3.67 1.8.658 4.5.897 6.02 2.048M944.345 793.833c-1.184-14.622 3.271-35.888 15.391-45.817 4.779-3.915 10.294-6.128 15.866-8.501 7.781-3.313 14.179-4.093 22.544-2.038M1063.52 734.942c2.43-2.853 6.95-4.266 10.36-5.72 18.29-7.787 39.89 1.038 49.56 16.998 1.66 2.746 3.45 5.706 4.74 8.742 1.54 3.612.84 11.71 3.46 13.94"/></g></svg>